<svg xmlns="http://www.w3.org/2000/svg" viewBox="0 0 1200 700" width="1200" height="700" style="font-family: &quot;Inter&quot;, -apple-system, BlinkMacSystemFont, &quot;Segoe UI&quot;, sans-serif;"><rect width="1200" height="700" fill="#fff"></rect><text x="600" y="35" text-anchor="middle" font-size="18" font-weight="700" fill="#222">Where does the money go?</text><g transform="translate(20,70)"><rect x="3" y="3" width="127" height="23" fill="#4e79a7" rx="4" opacity="0.9"></rect><rect x="3" y="29" width="127" height="55" fill="#59a14f" rx="4" opacity="0.9"></rect><rect x="3" y="87" width="127" height="32" fill="#76b7b2" rx="4" opacity="0.9"></rect><rect x="3" y="122" width="127" height="39" fill="#9c755f" rx="4" opacity="0.9"></rect><rect x="3" y="164" width="127" height="381" fill="#edc948" rx="4" opacity="0.9"></rect><rect x="3" y="548" width="127" height="59" fill="#a0cbe8" rx="4" opacity="0.9"></rect><rect x="133" y="3" width="696" height="379" fill="#f28e2b" rx="4" opacity="0.9"></rect><rect x="133" y="385" width="696" height="222" fill="#b07aa1" rx="4" opacity="0.9"></rect><rect x="832" y="3" width="325" height="289" fill="#e15759" rx="4" opacity="0.9"></rect><rect x="832" y="295" width="93" height="26" fill="#ff9da7" rx="4" opacity="0.9"></rect><rect x="832" y="324" width="93" height="205" fill="#bab0ac" rx="4" opacity="0.9"></rect><rect x="832" y="532" width="93" height="75" fill="#d4a6c8" rx="4" opacity="0.9"></rect><rect x="928" y="295" width="229" height="223" fill="#86bcb6" rx="4" opacity="0.9"></rect><rect x="928" y="521" width="193" height="86" fill="#888" rx="4" opacity="0.9"></rect><rect x="1124" y="521" width="33" height="86" fill="#888" rx="4" opacity="0.9"></rect><text class="name" x="9" y="21" font-size="9" fill="#fff" font-weight="600">product_manager</text><text class="name" x="9" y="47" font-size="11" fill="#fff" font-weight="600">architect</text><text class="name" x="9" y="105" font-size="9" fill="#fff" font-weight="600">tech_lead</text><text class="name" x="9" y="140" font-size="9" fill="#fff" font-weight="600">sprint_planner</text><text class="name" x="9" y="182" font-size="13" fill="#fff" font-weight="600">issue_writer</text><text class="name" x="9" y="566" font-size="11" fill="#fff" font-weight="600">workspace_setup</text><text class="name" x="139" y="21" font-size="13" fill="#fff" font-weight="600">coder</text><text class="name" x="139" y="403" font-size="13" fill="#fff" font-weight="600">qa</text><text class="name" x="838" y="21" font-size="13" fill="#fff" font-weight="600">reviewer</text><text class="name" x="838" y="313" font-size="9" fill="#fff" font-weight="600">synthesizer</text><text class="name" x="838" y="342" font-size="13" fill="#fff" font-weight="600">merger</text><text class="name" x="838" y="550" font-size="11" fill="#fff" font-weight="600">workspace_cleanup</text><text class="name" x="934" y="313" font-size="13" fill="#fff" font-weight="600">integration_tester</text><text class="name" x="934" y="539" font-size="13" fill="#fff" font-weight="600">issue</text><text class="name" x="1130" y="539" font-size="9" fill="#fff" font-weight="600"></text><text class="val" x="9" y="37" font-size="11" fill="rgba(255,255,255,0.85)">$0.37</text><text class="val" x="9" y="63" font-size="11" fill="rgba(255,255,255,0.85)">$0.83</text><text class="val" x="9" y="121" font-size="11" fill="rgba(255,255,255,0.85)">$0.50</text><text class="val" x="9" y="156" font-size="11" fill="rgba(255,255,255,0.85)">$0.61</text><text class="val" x="9" y="198" font-size="11" fill="rgba(255,255,255,0.85)">$5.51</text><text class="val" x="9" y="582" font-size="11" fill="rgba(255,255,255,0.85)">$0.88</text><text class="val" x="139" y="37" font-size="11" fill="rgba(255,255,255,0.85)">$29.57</text><text class="val" x="139" y="419" font-size="11" fill="rgba(255,255,255,0.85)">$17.38</text><text class="val" x="838" y="37" font-size="11" fill="rgba(255,255,255,0.85)">$10.58</text><text class="val" x="838" y="329" font-size="11" fill="rgba(255,255,255,0.85)">$0.31</text><text class="val" x="838" y="358" font-size="11" fill="rgba(255,255,255,0.85)">$2.18</text><text class="val" x="838" y="566" font-size="11" fill="rgba(255,255,255,0.85)">$0.83</text><text class="val" x="934" y="329" font-size="11" fill="rgba(255,255,255,0.85)">$5.81</text><text class="val" x="934" y="555" font-size="11" fill="rgba(255,255,255,0.85)">$1.93</text><text class="val" x="1130" y="555" font-size="11" fill="rgba(255,255,255,0.85)"></text></g></svg>