<svg xmlns="http://www.w3.org/2000/svg" viewBox="0 0 1200 700" width="1200" height="700" style="font-family: &quot;Inter&quot;, -apple-system, BlinkMacSystemFont, &quot;Segoe UI&quot;, sans-serif;"><rect width="1200" height="700" fill="#fff"></rect><text x="600" y="35" text-anchor="middle" font-size="18" font-weight="700" fill="#222">Where does the time go?</text><g transform="translate(20,70)"><rect x="3" y="3" width="65" height="46" fill="#4e79a7" rx="4" opacity="0.9"></rect><rect x="3" y="52" width="65" height="105" fill="#59a14f" rx="4" opacity="0.9"></rect><rect x="3" y="160" width="65" height="50" fill="#76b7b2" rx="4" opacity="0.9"></rect><rect x="3" y="213" width="65" height="58" fill="#9c755f" rx="4" opacity="0.9"></rect><rect x="3" y="274" width="65" height="256" fill="#edc948" rx="4" opacity="0.9"></rect><rect x="3" y="533" width="65" height="74" fill="#a0cbe8" rx="4" opacity="0.9"></rect><rect x="71" y="3" width="876" height="332" fill="#f28e2b" rx="4" opacity="0.9"></rect><rect x="71" y="338" width="876" height="269" fill="#b07aa1" rx="4" opacity="0.9"></rect><rect x="950" y="3" width="207" height="216" fill="#e15759" rx="4" opacity="0.9"></rect><rect x="950" y="222" width="46" height="127" fill="#ff9da7" rx="4" opacity="0.9"></rect><rect x="999" y="222" width="158" height="127" fill="#bab0ac" rx="4" opacity="0.9"></rect><rect x="950" y="352" width="33" height="132" fill="#d4a6c8" rx="4" opacity="0.9"></rect><rect x="986" y="352" width="171" height="132" fill="#86bcb6" rx="4" opacity="0.9"></rect><rect x="950" y="487" width="168" height="120" fill="#888" rx="4" opacity="0.9"></rect><rect x="1121" y="487" width="36" height="120" fill="#888" rx="4" opacity="0.9"></rect><text class="name" x="9" y="21" font-size="9" fill="#fff" font-weight="600">product_manager</text><text class="name" x="9" y="70" font-size="11" fill="#fff" font-weight="600">architect</text><text class="name" x="9" y="178" font-size="9" fill="#fff" font-weight="600">tech_lead</text><text class="name" x="9" y="231" font-size="9" fill="#fff" font-weight="600">sprint_planner</text><text class="name" x="9" y="292" font-size="13" fill="#fff" font-weight="600">issue_writer</text><text class="name" x="9" y="551" font-size="9" fill="#fff" font-weight="600">workspace_setup</text><text class="name" x="77" y="21" font-size="13" fill="#fff" font-weight="600">coder</text><text class="name" x="77" y="356" font-size="13" fill="#fff" font-weight="600">qa</text><text class="name" x="956" y="21" font-size="13" fill="#fff" font-weight="600">reviewer</text><text class="name" x="956" y="240" font-size="11" fill="#fff" font-weight="600"></text><text class="name" x="1005" y="240" font-size="13" fill="#fff" font-weight="600">merger</text><text class="name" x="956" y="370" font-size="9" fill="#fff" font-weight="600"></text><text class="name" x="992" y="370" font-size="13" fill="#fff" font-weight="600">integration_tester</text><text class="name" x="956" y="505" font-size="13" fill="#fff" font-weight="600">issue</text><text class="name" x="1127" y="505" font-size="9" fill="#fff" font-weight="600"></text><text class="val" x="9" y="37" font-size="11" fill="rgba(255,255,255,0.85)">2.6m</text><text class="val" x="9" y="86" font-size="11" fill="rgba(255,255,255,0.85)">5.8m</text><text class="val" x="9" y="194" font-size="11" fill="rgba(255,255,255,0.85)">2.8m</text><text class="val" x="9" y="247" font-size="11" fill="rgba(255,255,255,0.85)">3.2m</text><text class="val" x="9" y="308" font-size="11" fill="rgba(255,255,255,0.85)">13.8m</text><text class="val" x="9" y="567" font-size="11" fill="rgba(255,255,255,0.85)">4.1m</text><text class="val" x="77" y="37" font-size="11" fill="rgba(255,255,255,0.85)">229.8m</text><text class="val" x="77" y="372" font-size="11" fill="rgba(255,255,255,0.85)">187.0m</text><text class="val" x="956" y="37" font-size="11" fill="rgba(255,255,255,0.85)">36.0m</text><text class="val" x="956" y="256" font-size="11" fill="rgba(255,255,255,0.85)"></text><text class="val" x="1005" y="256" font-size="11" fill="rgba(255,255,255,0.85)">16.3m</text><text class="val" x="956" y="386" font-size="11" fill="rgba(255,255,255,0.85)"></text><text class="val" x="992" y="386" font-size="11" fill="rgba(255,255,255,0.85)">18.3m</text><text class="val" x="956" y="521" font-size="11" fill="rgba(255,255,255,0.85)">16.5m</text><text class="val" x="1127" y="521" font-size="11" fill="rgba(255,255,255,0.85)"></text></g></svg>