<svg xmlns="http://www.w3.org/2000/svg" viewBox="0 0 1200 700" width="1200" height="700" style="font-family: &quot;Inter&quot;, -apple-system, BlinkMacSystemFont, &quot;Segoe UI&quot;, sans-serif;"><rect width="1200" height="700" fill="#fff"></rect><text x="600" y="35" text-anchor="middle" font-size="18" font-weight="700" fill="#222">How fast are we spending?</text><line x1="100" x2="1150" y1="630" y2="630" stroke="#f0f0f0" stroke-width="1"></line><line x1="100" x2="1150" y1="561.3178475864577" y2="561.3178475864577" stroke="#f0f0f0" stroke-width="1"></line><line x1="100" x2="1150" y1="492.6356951729154" y2="492.6356951729154" stroke="#f0f0f0" stroke-width="1"></line><line x1="100" x2="1150" y1="423.95354275937314" y2="423.95354275937314" stroke="#f0f0f0" stroke-width="1"></line><line x1="100" x2="1150" y1="355.27139034583087" y2="355.27139034583087" stroke="#f0f0f0" stroke-width="1"></line><line x1="100" x2="1150" y1="286.5892379322886" y2="286.5892379322886" stroke="#f0f0f0" stroke-width="1"></line><line x1="100" x2="1150" y1="217.90708551874633" y2="217.90708551874633" stroke="#f0f0f0" stroke-width="1"></line><line x1="100" x2="1150" y1="149.22493310520403" y2="149.22493310520403" stroke="#f0f0f0" stroke-width="1"></line><line x1="100" x2="1150" y1="80.54278069166172" y2="80.54278069166172" stroke="#f0f0f0" stroke-width="1"></line><line x1="100" x2="100" y1="70" y2="630" stroke="#f0f0f0" stroke-width="1"></line><line x1="272.0878835571412" x2="272.0878835571412" y1="70" y2="630" stroke="#f0f0f0" stroke-width="1"></line><line x1="444.1757671142824" x2="444.1757671142824" y1="70" y2="630" stroke="#f0f0f0" stroke-width="1"></line><line x1="616.2636506714236" x2="616.2636506714236" y1="70" y2="630" stroke="#f0f0f0" stroke-width="1"></line><line x1="788.3515342285648" x2="788.3515342285648" y1="70" y2="630" stroke="#f0f0f0" stroke-width="1"></line><line x1="960.4394177857062" x2="960.4394177857062" y1="70" y2="630" stroke="#f0f0f0" stroke-width="1"></line><line x1="1132.5273013428473" x2="1132.5273013428473" y1="70" y2="630" stroke="#f0f0f0" stroke-width="1"></line><path d="M109.124,627.481L129.126,621.75L138.923,618.307L150.171,614.123L152.625,611.888L152.668,609.63L152.887,607.295L152.899,604.999L152.943,602.709L152.976,600.403L152.99,598.087L153.111,595.774L153.179,593.431L153.198,591.096L153.238,588.778L153.246,586.449L153.335,584.1L153.377,581.753L153.589,579.449L154.998,578.823L163.2,574.473L169.058,571.759L169.317,569.366L170.25,569.237L174.171,567.91L175.854,567.233L177.393,566.55L189.268,558.503L194.14,554.801L197.164,549.107L198.135,548.999L202.491,547.49L203.784,546.95L205.607,546.15L215.003,538.906L216.772,530.943L219.764,529.22L222.211,525.294L223.87,521.83L223.914,517.73L224.853,517.622L224.866,517.507L250.164,515.295L258.893,510.937L260.878,510.128L263.072,509.194L271.825,504.835L276.277,497.635L277.079,495.295L277.771,483.838L280.313,470.215L281.734,467.353L283.03,462.447L283.998,462.339L284.689,458.641L286.53,454.654L287.012,450.261L287.394,443.975L287.54,443.86L288.256,443.754L290.97,435.702L291.935,435.591L298.921,432.426L320.341,416.343L322.568,415.435L324.003,414.755L338.25,403.566L342.77,398.984L349.8,392.003L350.68,391.899L355.632,389.696L357.215,389.146L359.417,388.322L369.049,379.633L369.077,372.644L375.165,368.328L377.482,362.754L379.088,357.743L380.304,357.626L382.379,353.071L383.191,352.972L389.134,347.488L394.77,344.524L400.779,338.799L401.65,338.696L404.866,337.459L438.097,318L439.905,317.214L442.026,316.393L461.967,305.359L469.434,300.69L477.415,287.547L478.459,287.433L483.585,285.601L485.255,284.953L487.585,284.248L514.987,274.088L520.546,271.233L582.742,261.266L584.229,261.135L584.812,232.67L589.84,227.722L673.914,208.691L682.56,203.987L740.778,203.875L790.618,187.994L830.28,187.869L840.69,177.517L858.013,170.286L916.188,159.651L925.045,153.642L928.564,152.134L930.487,151.378L941.566,148.929L948.091,145.739L1047.698,133.168L1057.112,129.095L1081.683,119.945L1093.479,115.158L1119.917,106.256L1123.36,105.931L1141.037,100.508L1150,96.667L1150,630L1141.037,630L1123.36,630L1119.917,630L1093.479,630L1081.683,630L1057.112,630L1047.698,630L948.091,630L941.566,630L930.487,630L928.564,630L925.045,630L916.188,630L858.013,630L840.69,630L830.28,630L790.618,630L740.778,630L682.56,630L673.914,630L589.84,630L584.812,630L584.229,630L582.742,630L520.546,630L514.987,630L487.585,630L485.255,630L483.585,630L478.459,630L477.415,630L469.434,630L461.967,630L442.026,630L439.905,630L438.097,630L404.866,630L401.65,630L400.779,630L394.77,630L389.134,630L383.191,630L382.379,630L380.304,630L379.088,630L377.482,630L375.165,630L369.077,630L369.049,630L359.417,630L357.215,630L355.632,630L350.68,630L349.8,630L342.77,630L338.25,630L324.003,630L322.568,630L320.341,630L298.921,630L291.935,630L290.97,630L288.256,630L287.54,630L287.394,630L287.012,630L286.53,630L284.689,630L283.998,630L283.03,630L281.734,630L280.313,630L277.771,630L277.079,630L276.277,630L271.825,630L263.072,630L260.878,630L258.893,630L250.164,630L224.866,630L224.853,630L223.914,630L223.87,630L222.211,630L219.764,630L216.772,630L215.003,630L205.607,630L203.784,630L202.491,630L198.135,630L197.164,630L194.14,630L189.268,630L177.393,630L175.854,630L174.171,630L170.25,630L169.317,630L169.058,630L163.2,630L154.998,630L153.589,630L153.377,630L153.335,630L153.246,630L153.238,630L153.198,630L153.179,630L153.111,630L152.99,630L152.976,630L152.943,630L152.899,630L152.887,630L152.668,630L152.625,630L150.171,630L138.923,630L129.126,630L109.124,630Z" fill="rgba(225,87,89,0.15)"></path><path d="M109.124,627.481L129.126,621.75L138.923,618.307L150.171,614.123L152.625,611.888L152.668,609.63L152.887,607.295L152.899,604.999L152.943,602.709L152.976,600.403L152.99,598.087L153.111,595.774L153.179,593.431L153.198,591.096L153.238,588.778L153.246,586.449L153.335,584.1L153.377,581.753L153.589,579.449L154.998,578.823L163.2,574.473L169.058,571.759L169.317,569.366L170.25,569.237L174.171,567.91L175.854,567.233L177.393,566.55L189.268,558.503L194.14,554.801L197.164,549.107L198.135,548.999L202.491,547.49L203.784,546.95L205.607,546.15L215.003,538.906L216.772,530.943L219.764,529.22L222.211,525.294L223.87,521.83L223.914,517.73L224.853,517.622L224.866,517.507L250.164,515.295L258.893,510.937L260.878,510.128L263.072,509.194L271.825,504.835L276.277,497.635L277.079,495.295L277.771,483.838L280.313,470.215L281.734,467.353L283.03,462.447L283.998,462.339L284.689,458.641L286.53,454.654L287.012,450.261L287.394,443.975L287.54,443.86L288.256,443.754L290.97,435.702L291.935,435.591L298.921,432.426L320.341,416.343L322.568,415.435L324.003,414.755L338.25,403.566L342.77,398.984L349.8,392.003L350.68,391.899L355.632,389.696L357.215,389.146L359.417,388.322L369.049,379.633L369.077,372.644L375.165,368.328L377.482,362.754L379.088,357.743L380.304,357.626L382.379,353.071L383.191,352.972L389.134,347.488L394.77,344.524L400.779,338.799L401.65,338.696L404.866,337.459L438.097,318L439.905,317.214L442.026,316.393L461.967,305.359L469.434,300.69L477.415,287.547L478.459,287.433L483.585,285.601L485.255,284.953L487.585,284.248L514.987,274.088L520.546,271.233L582.742,261.266L584.229,261.135L584.812,232.67L589.84,227.722L673.914,208.691L682.56,203.987L740.778,203.875L790.618,187.994L830.28,187.869L840.69,177.517L858.013,170.286L916.188,159.651L925.045,153.642L928.564,152.134L930.487,151.378L941.566,148.929L948.091,145.739L1047.698,133.168L1057.112,129.095L1081.683,119.945L1093.479,115.158L1119.917,106.256L1123.36,105.931L1141.037,100.508L1150,96.667" fill="none" stroke="#e15759" stroke-width="2.5"></path><g transform="translate(0,630)" fill="none" font-size="10" font-family="sans-serif" text-anchor="middle"><path class="domain" stroke="#888" d="M100.5,6V0.5H1150.5V6"></path><g class="tick" opacity="1" transform="translate(100.5,0)"><line stroke="#888" y2="6"></line><text fill="#888" y="9" dy="0.71em" font-size="11">0</text></g><g class="tick" opacity="1" transform="translate(272.5878835571412,0)"><line stroke="#888" y2="6"></line><text fill="#888" y="9" dy="0.71em" font-size="11">50</text></g><g class="tick" opacity="1" transform="translate(444.6757671142824,0)"><line stroke="#888" y2="6"></line><text fill="#888" y="9" dy="0.71em" font-size="11">100</text></g><g class="tick" opacity="1" transform="translate(616.7636506714236,0)"><line stroke="#888" y2="6"></line><text fill="#888" y="9" dy="0.71em" font-size="11">150</text></g><g class="tick" opacity="1" transform="translate(788.8515342285648,0)"><line stroke="#888" y2="6"></line><text fill="#888" y="9" dy="0.71em" font-size="11">200</text></g><g class="tick" opacity="1" transform="translate(960.9394177857062,0)"><line stroke="#888" y2="6"></line><text fill="#888" y="9" dy="0.71em" font-size="11">250</text></g><g class="tick" opacity="1" transform="translate(1133.0273013428473,0)"><line stroke="#888" y2="6"></line><text fill="#888" y="9" dy="0.71em" font-size="11">300</text></g></g><text x="625" y="675" text-anchor="middle" font-size="12" fill="#555">Elapsed time (minutes)</text><g transform="translate(100,0)" fill="none" font-size="10" font-family="sans-serif" text-anchor="end"><path class="domain" stroke="#888" d="M-6,630.5H0.5V70.5H-6"></path><g class="tick" opacity="1" transform="translate(0,630.5)"><line stroke="#888" x2="-6"></line><text fill="#888" x="-9" dy="0.32em" font-size="11">0</text></g><g class="tick" opacity="1" transform="translate(0,561.8178475864577)"><line stroke="#888" x2="-6"></line><text fill="#888" x="-9" dy="0.32em" font-size="11">10</text></g><g class="tick" opacity="1" transform="translate(0,493.1356951729154)"><line stroke="#888" x2="-6"></line><text fill="#888" x="-9" dy="0.32em" font-size="11">20</text></g><g class="tick" opacity="1" transform="translate(0,424.45354275937314)"><line stroke="#888" x2="-6"></line><text fill="#888" x="-9" dy="0.32em" font-size="11">30</text></g><g class="tick" opacity="1" transform="translate(0,355.77139034583087)"><line stroke="#888" x2="-6"></line><text fill="#888" x="-9" dy="0.32em" font-size="11">40</text></g><g class="tick" opacity="1" transform="translate(0,287.0892379322886)"><line stroke="#888" x2="-6"></line><text fill="#888" x="-9" dy="0.32em" font-size="11">50</text></g><g class="tick" opacity="1" transform="translate(0,218.40708551874633)"><line stroke="#888" x2="-6"></line><text fill="#888" x="-9" dy="0.32em" font-size="11">60</text></g><g class="tick" opacity="1" transform="translate(0,149.72493310520403)"><line stroke="#888" x2="-6"></line><text fill="#888" x="-9" dy="0.32em" font-size="11">70</text></g><g class="tick" opacity="1" transform="translate(0,81.04278069166172)"><line stroke="#888" x2="-6"></line><text fill="#888" x="-9" dy="0.32em" font-size="11">80</text></g></g><text transform="rotate(-90)" x="-350" y="55" text-anchor="middle" font-size="12" fill="#555">Cumulative cost (USD)</text></svg>