<svg xmlns="http://www.w3.org/2000/svg" viewBox="0 0 1200 700" width="1200" height="700" style="font-family: &quot;Inter&quot;, -apple-system, BlinkMacSystemFont, &quot;Segoe UI&quot;, sans-serif;"><rect width="1200" height="700" fill="#fff"></rect><text x="600" y="35" text-anchor="middle" font-size="18" font-weight="700" fill="#222">How many agents run at once?</text><line x1="100" x2="1150" y1="630" y2="630" stroke="#f0f0f0" stroke-width="1"></line><line x1="100" x2="1150" y1="560" y2="560" stroke="#f0f0f0" stroke-width="1"></line><line x1="100" x2="1150" y1="490" y2="490" stroke="#f0f0f0" stroke-width="1"></line><line x1="100" x2="1150" y1="420" y2="420" stroke="#f0f0f0" stroke-width="1"></line><line x1="100" x2="1150" y1="350" y2="350" stroke="#f0f0f0" stroke-width="1"></line><line x1="100" x2="1150" y1="280" y2="280" stroke="#f0f0f0" stroke-width="1"></line><line x1="100" x2="1150" y1="210" y2="210" stroke="#f0f0f0" stroke-width="1"></line><line x1="100" x2="1150" y1="140" y2="140" stroke="#f0f0f0" stroke-width="1"></line><line x1="100" x2="1150" y1="70" y2="70" stroke="#f0f0f0" stroke-width="1"></line><path d="M100,595L109.124,595L109.124,630L109.176,630L109.176,595L129.126,595L129.126,630L129.155,630L129.155,595L138.923,595L138.923,630L138.943,630L138.943,595L150.171,595L150.171,630L150.21,630L150.21,595L150.21,595L150.21,560L150.21,560L150.21,525L150.21,525L150.21,490L150.211,490L150.211,455L150.211,455L150.211,420L150.211,420L150.211,385L150.211,385L150.211,350L150.212,350L150.212,315L150.212,315L150.212,280L150.212,280L150.212,245L150.213,245L150.213,210L150.213,210L150.213,175L150.213,175L150.213,140L150.214,140L150.214,105L152.625,105L152.625,140L152.668,140L152.668,175L152.887,175L152.887,210L152.899,210L152.899,245L152.943,245L152.943,280L152.976,280L152.976,315L152.99,315L152.99,350L153.111,350L153.111,385L153.179,385L153.179,420L153.198,420L153.198,455L153.238,455L153.238,490L153.246,490L153.246,525L153.335,525L153.335,560L153.377,560L153.377,595L153.589,595L153.589,630L153.629,630L153.629,595L154.998,595L154.998,630L155.023,630L155.023,595L163.2,595L163.2,630L163.254,630L163.254,595L163.254,595L163.254,560L169.058,560L169.058,595L169.317,595L169.317,630L169.401,630L169.401,595L170.25,595L170.25,630L170.263,630L170.263,595L174.171,595L174.171,630L174.239,630L174.239,595L175.854,595L175.854,630L175.867,630L175.867,595L177.393,595L177.393,630L177.419,630L177.419,595L189.268,595L189.268,630L189.283,630L189.283,595L189.283,595L189.283,560L194.14,560L194.14,595L197.164,595L197.164,630L197.248,630L197.248,595L198.135,595L198.135,630L198.148,630L198.148,595L202.491,595L202.491,630L202.549,630L202.549,595L203.784,595L203.784,630L203.795,630L203.795,595L205.607,595L205.607,630L205.624,630L205.624,595L205.624,595L205.624,560L215.003,560L215.003,595L215.071,595L215.071,560L215.072,560L215.072,525L216.772,525L216.772,560L216.808,560L216.808,525L216.808,525L216.808,490L219.764,490L219.764,525L222.211,525L222.211,560L223.87,560L223.87,595L223.91,595L223.91,560L223.914,560L223.914,595L223.974,595L223.974,560L224.853,560L224.853,595L224.866,595L224.866,630L224.884,630L224.884,595L250.164,595L250.164,630L250.197,630L250.197,595L258.893,595L258.893,630L258.925,630L258.925,595L260.878,595L260.878,630L260.889,630L260.889,595L263.072,595L263.072,630L263.085,630L263.085,595L263.085,595L263.085,560L263.085,560L263.085,525L263.085,525L263.085,490L271.825,490L271.825,525L271.834,525L271.834,490L271.834,490L271.834,455L276.277,455L276.277,490L276.339,490L276.339,455L276.34,455L276.34,420L277.079,420L277.079,455L277.771,455L277.771,490L277.815,490L277.815,455L277.816,455L277.816,420L280.313,420L280.313,455L280.328,455L280.328,420L280.328,420L280.328,385L281.734,385L281.734,420L283.03,420L283.03,455L283.108,455L283.108,420L283.998,420L283.998,455L284.689,455L284.689,490L286.53,490L286.53,525L286.551,525L286.551,490L287.012,490L287.012,525L287.394,525L287.394,560L287.416,560L287.416,525L287.54,525L287.54,560L288.256,560L288.256,595L290.97,595L290.97,630L290.981,630L290.981,595L291.935,595L291.935,630L291.955,630L291.955,595L298.921,595L298.921,630L298.968,630L298.968,595L320.341,595L320.341,630L320.364,630L320.364,595L322.568,595L322.568,630L322.589,630L322.589,595L324.003,595L324.003,630L324.029,630L324.029,595L338.25,595L338.25,630L338.292,630L338.292,595L338.292,595L338.292,560L342.77,560L342.77,595L349.8,595L349.8,630L349.874,630L349.874,595L350.68,595L350.68,630L350.682,630L350.682,595L355.632,595L355.632,630L355.708,630L355.708,595L357.215,595L357.215,630L357.237,630L357.237,595L359.417,595L359.417,630L359.434,630L359.434,595L359.434,595L359.434,560L369.049,560L369.049,595L369.077,595L369.077,630L369.138,630L369.138,595L369.139,595L369.139,560L369.139,560L369.139,525L369.139,525L369.139,490L375.165,490L375.165,525L377.482,525L377.482,560L379.088,560L379.088,595L379.099,595L379.099,560L380.304,560L380.304,595L380.328,595L380.328,560L382.379,560L382.379,595L382.397,595L382.397,560L383.191,560L383.191,595L389.134,595L389.134,630L389.158,630L389.158,595L389.159,595L389.159,560L394.77,560L394.77,595L400.779,595L400.779,630L400.849,630L400.849,595L401.65,595L401.65,630L401.657,630L401.657,595L404.866,595L404.866,630L404.876,630L404.876,595L438.097,595L438.097,630L438.114,630L438.114,595L439.905,595L439.905,630L439.918,630L439.918,595L442.026,595L442.026,630L442.052,630L442.052,595L461.967,595L461.967,630L462.057,630L462.057,595L462.057,595L462.057,560L469.434,560L469.434,595L477.415,595L477.415,630L477.456,630L477.456,595L478.459,595L478.459,630L478.471,630L478.471,595L483.585,595L483.585,630L483.65,630L483.65,595L485.255,595L485.255,630L485.27,630L485.27,595L487.585,595L487.585,630L487.61,630L487.61,595L487.611,595L487.611,560L514.987,560L514.987,595L515.061,595L515.061,560L515.062,560L515.062,525L520.546,525L520.546,560L582.742,560L582.742,595L582.83,595L582.83,560L584.229,560L584.229,595L584.242,595L584.242,560L584.812,560L584.812,595L584.832,595L584.832,560L584.833,560L584.833,525L589.84,525L589.84,560L673.914,560L673.914,595L673.983,595L673.983,560L673.983,560L673.983,525L682.56,525L682.56,560L739.713,560L739.713,525L740.778,525L740.778,560L740.803,560L740.803,525L790.618,525L790.618,560L828.863,560L828.863,525L830.28,525L830.28,560L830.299,560L830.299,525L840.69,525L840.69,560L858.013,560L858.013,595L895.683,595L895.683,560L916.188,560L916.188,595L925.045,595L925.045,630L925.135,630L925.135,595L928.564,595L928.564,630L928.581,630L928.581,595L928.582,595L928.582,560L930.487,560L930.487,595L941.566,595L941.566,630L941.659,630L941.659,595L948.091,595L948.091,630L950.11,630L950.11,595L950.11,595L950.11,560L1047.698,560L1047.698,595L1047.79,595L1047.79,560L1047.79,560L1047.79,525L1057.112,525L1057.112,560L1081.683,560L1081.683,595L1081.708,595L1081.708,560L1093.479,560L1093.479,595L1119.917,595L1119.917,630L1119.975,630L1119.975,595L1123.36,595L1123.36,630L1123.378,630L1123.378,595L1141.037,595L1141.037,630L1141.123,630L1141.123,595L1150,595L1150,630L1150,630L1150,630L1141.123,630L1141.123,630L1141.037,630L1141.037,630L1123.378,630L1123.378,630L1123.36,630L1123.36,630L1119.975,630L1119.975,630L1119.917,630L1119.917,630L1093.479,630L1093.479,630L1081.708,630L1081.708,630L1081.683,630L1081.683,630L1057.112,630L1057.112,630L1047.79,630L1047.79,630L1047.79,630L1047.79,630L1047.698,630L1047.698,630L950.11,630L950.11,630L950.11,630L950.11,630L948.091,630L948.091,630L941.659,630L941.659,630L941.566,630L941.566,630L930.487,630L930.487,630L928.582,630L928.582,630L928.581,630L928.581,630L928.564,630L928.564,630L925.135,630L925.135,630L925.045,630L925.045,630L916.188,630L916.188,630L895.683,630L895.683,630L858.013,630L858.013,630L840.69,630L840.69,630L830.299,630L830.299,630L830.28,630L830.28,630L828.863,630L828.863,630L790.618,630L790.618,630L740.803,630L740.803,630L740.778,630L740.778,630L739.713,630L739.713,630L682.56,630L682.56,630L673.983,630L673.983,630L673.983,630L673.983,630L673.914,630L673.914,630L589.84,630L589.84,630L584.833,630L584.833,630L584.832,630L584.832,630L584.812,630L584.812,630L584.242,630L584.242,630L584.229,630L584.229,630L582.83,630L582.83,630L582.742,630L582.742,630L520.546,630L520.546,630L515.062,630L515.062,630L515.061,630L515.061,630L514.987,630L514.987,630L487.611,630L487.611,630L487.61,630L487.61,630L487.585,630L487.585,630L485.27,630L485.27,630L485.255,630L485.255,630L483.65,630L483.65,630L483.585,630L483.585,630L478.471,630L478.471,630L478.459,630L478.459,630L477.456,630L477.456,630L477.415,630L477.415,630L469.434,630L469.434,630L462.057,630L462.057,630L462.057,630L462.057,630L461.967,630L461.967,630L442.052,630L442.052,630L442.026,630L442.026,630L439.918,630L439.918,630L439.905,630L439.905,630L438.114,630L438.114,630L438.097,630L438.097,630L404.876,630L404.876,630L404.866,630L404.866,630L401.657,630L401.657,630L401.65,630L401.65,630L400.849,630L400.849,630L400.779,630L400.779,630L394.77,630L394.77,630L389.159,630L389.159,630L389.158,630L389.158,630L389.134,630L389.134,630L383.191,630L383.191,630L382.397,630L382.397,630L382.379,630L382.379,630L380.328,630L380.328,630L380.304,630L380.304,630L379.099,630L379.099,630L379.088,630L379.088,630L377.482,630L377.482,630L375.165,630L375.165,630L369.139,630L369.139,630L369.139,630L369.139,630L369.139,630L369.139,630L369.138,630L369.138,630L369.077,630L369.077,630L369.049,630L369.049,630L359.434,630L359.434,630L359.434,630L359.434,630L359.417,630L359.417,630L357.237,630L357.237,630L357.215,630L357.215,630L355.708,630L355.708,630L355.632,630L355.632,630L350.682,630L350.682,630L350.68,630L350.68,630L349.874,630L349.874,630L349.8,630L349.8,630L342.77,630L342.77,630L338.292,630L338.292,630L338.292,630L338.292,630L338.25,630L338.25,630L324.029,630L324.029,630L324.003,630L324.003,630L322.589,630L322.589,630L322.568,630L322.568,630L320.364,630L320.364,630L320.341,630L320.341,630L298.968,630L298.968,630L298.921,630L298.921,630L291.955,630L291.955,630L291.935,630L291.935,630L290.981,630L290.981,630L290.97,630L290.97,630L288.256,630L288.256,630L287.54,630L287.54,630L287.416,630L287.416,630L287.394,630L287.394,630L287.012,630L287.012,630L286.551,630L286.551,630L286.53,630L286.53,630L284.689,630L284.689,630L283.998,630L283.998,630L283.108,630L283.108,630L283.03,630L283.03,630L281.734,630L281.734,630L280.328,630L280.328,630L280.328,630L280.328,630L280.313,630L280.313,630L277.816,630L277.816,630L277.815,630L277.815,630L277.771,630L277.771,630L277.079,630L277.079,630L276.34,630L276.34,630L276.339,630L276.339,630L276.277,630L276.277,630L271.834,630L271.834,630L271.834,630L271.834,630L271.825,630L271.825,630L263.085,630L263.085,630L263.085,630L263.085,630L263.085,630L263.085,630L263.085,630L263.085,630L263.072,630L263.072,630L260.889,630L260.889,630L260.878,630L260.878,630L258.925,630L258.925,630L258.893,630L258.893,630L250.197,630L250.197,630L250.164,630L250.164,630L224.884,630L224.884,630L224.866,630L224.866,630L224.853,630L224.853,630L223.974,630L223.974,630L223.914,630L223.914,630L223.91,630L223.91,630L223.87,630L223.87,630L222.211,630L222.211,630L219.764,630L219.764,630L216.808,630L216.808,630L216.808,630L216.808,630L216.772,630L216.772,630L215.072,630L215.072,630L215.071,630L215.071,630L215.003,630L215.003,630L205.624,630L205.624,630L205.624,630L205.624,630L205.607,630L205.607,630L203.795,630L203.795,630L203.784,630L203.784,630L202.549,630L202.549,630L202.491,630L202.491,630L198.148,630L198.148,630L198.135,630L198.135,630L197.248,630L197.248,630L197.164,630L197.164,630L194.14,630L194.14,630L189.283,630L189.283,630L189.283,630L189.283,630L189.268,630L189.268,630L177.419,630L177.419,630L177.393,630L177.393,630L175.867,630L175.867,630L175.854,630L175.854,630L174.239,630L174.239,630L174.171,630L174.171,630L170.263,630L170.263,630L170.25,630L170.25,630L169.401,630L169.401,630L169.317,630L169.317,630L169.058,630L169.058,630L163.254,630L163.254,630L163.254,630L163.254,630L163.2,630L163.2,630L155.023,630L155.023,630L154.998,630L154.998,630L153.629,630L153.629,630L153.589,630L153.589,630L153.377,630L153.377,630L153.335,630L153.335,630L153.246,630L153.246,630L153.238,630L153.238,630L153.198,630L153.198,630L153.179,630L153.179,630L153.111,630L153.111,630L152.99,630L152.99,630L152.976,630L152.976,630L152.943,630L152.943,630L152.899,630L152.899,630L152.887,630L152.887,630L152.668,630L152.668,630L152.625,630L152.625,630L150.214,630L150.214,630L150.213,630L150.213,630L150.213,630L150.213,630L150.213,630L150.213,630L150.212,630L150.212,630L150.212,630L150.212,630L150.212,630L150.212,630L150.211,630L150.211,630L150.211,630L150.211,630L150.211,630L150.211,630L150.211,630L150.211,630L150.21,630L150.21,630L150.21,630L150.21,630L150.21,630L150.21,630L150.21,630L150.21,630L150.171,630L150.171,630L138.943,630L138.943,630L138.923,630L138.923,630L129.155,630L129.155,630L129.126,630L129.126,630L109.176,630L109.176,630L109.124,630L109.124,630L100,630Z" fill="rgba(78,121,167,0.2)"></path><path d="M100,595L109.124,595L109.124,630L109.176,630L109.176,595L129.126,595L129.126,630L129.155,630L129.155,595L138.923,595L138.923,630L138.943,630L138.943,595L150.171,595L150.171,630L150.21,630L150.21,595L150.21,595L150.21,560L150.21,560L150.21,525L150.21,525L150.21,490L150.211,490L150.211,455L150.211,455L150.211,420L150.211,420L150.211,385L150.211,385L150.211,350L150.212,350L150.212,315L150.212,315L150.212,280L150.212,280L150.212,245L150.213,245L150.213,210L150.213,210L150.213,175L150.213,175L150.213,140L150.214,140L150.214,105L152.625,105L152.625,140L152.668,140L152.668,175L152.887,175L152.887,210L152.899,210L152.899,245L152.943,245L152.943,280L152.976,280L152.976,315L152.99,315L152.99,350L153.111,350L153.111,385L153.179,385L153.179,420L153.198,420L153.198,455L153.238,455L153.238,490L153.246,490L153.246,525L153.335,525L153.335,560L153.377,560L153.377,595L153.589,595L153.589,630L153.629,630L153.629,595L154.998,595L154.998,630L155.023,630L155.023,595L163.2,595L163.2,630L163.254,630L163.254,595L163.254,595L163.254,560L169.058,560L169.058,595L169.317,595L169.317,630L169.401,630L169.401,595L170.25,595L170.25,630L170.263,630L170.263,595L174.171,595L174.171,630L174.239,630L174.239,595L175.854,595L175.854,630L175.867,630L175.867,595L177.393,595L177.393,630L177.419,630L177.419,595L189.268,595L189.268,630L189.283,630L189.283,595L189.283,595L189.283,560L194.14,560L194.14,595L197.164,595L197.164,630L197.248,630L197.248,595L198.135,595L198.135,630L198.148,630L198.148,595L202.491,595L202.491,630L202.549,630L202.549,595L203.784,595L203.784,630L203.795,630L203.795,595L205.607,595L205.607,630L205.624,630L205.624,595L205.624,595L205.624,560L215.003,560L215.003,595L215.071,595L215.071,560L215.072,560L215.072,525L216.772,525L216.772,560L216.808,560L216.808,525L216.808,525L216.808,490L219.764,490L219.764,525L222.211,525L222.211,560L223.87,560L223.87,595L223.91,595L223.91,560L223.914,560L223.914,595L223.974,595L223.974,560L224.853,560L224.853,595L224.866,595L224.866,630L224.884,630L224.884,595L250.164,595L250.164,630L250.197,630L250.197,595L258.893,595L258.893,630L258.925,630L258.925,595L260.878,595L260.878,630L260.889,630L260.889,595L263.072,595L263.072,630L263.085,630L263.085,595L263.085,595L263.085,560L263.085,560L263.085,525L263.085,525L263.085,490L271.825,490L271.825,525L271.834,525L271.834,490L271.834,490L271.834,455L276.277,455L276.277,490L276.339,490L276.339,455L276.34,455L276.34,420L277.079,420L277.079,455L277.771,455L277.771,490L277.815,490L277.815,455L277.816,455L277.816,420L280.313,420L280.313,455L280.328,455L280.328,420L280.328,420L280.328,385L281.734,385L281.734,420L283.03,420L283.03,455L283.108,455L283.108,420L283.998,420L283.998,455L284.689,455L284.689,490L286.53,490L286.53,525L286.551,525L286.551,490L287.012,490L287.012,525L287.394,525L287.394,560L287.416,560L287.416,525L287.54,525L287.54,560L288.256,560L288.256,595L290.97,595L290.97,630L290.981,630L290.981,595L291.935,595L291.935,630L291.955,630L291.955,595L298.921,595L298.921,630L298.968,630L298.968,595L320.341,595L320.341,630L320.364,630L320.364,595L322.568,595L322.568,630L322.589,630L322.589,595L324.003,595L324.003,630L324.029,630L324.029,595L338.25,595L338.25,630L338.292,630L338.292,595L338.292,595L338.292,560L342.77,560L342.77,595L349.8,595L349.8,630L349.874,630L349.874,595L350.68,595L350.68,630L350.682,630L350.682,595L355.632,595L355.632,630L355.708,630L355.708,595L357.215,595L357.215,630L357.237,630L357.237,595L359.417,595L359.417,630L359.434,630L359.434,595L359.434,595L359.434,560L369.049,560L369.049,595L369.077,595L369.077,630L369.138,630L369.138,595L369.139,595L369.139,560L369.139,560L369.139,525L369.139,525L369.139,490L375.165,490L375.165,525L377.482,525L377.482,560L379.088,560L379.088,595L379.099,595L379.099,560L380.304,560L380.304,595L380.328,595L380.328,560L382.379,560L382.379,595L382.397,595L382.397,560L383.191,560L383.191,595L389.134,595L389.134,630L389.158,630L389.158,595L389.159,595L389.159,560L394.77,560L394.77,595L400.779,595L400.779,630L400.849,630L400.849,595L401.65,595L401.65,630L401.657,630L401.657,595L404.866,595L404.866,630L404.876,630L404.876,595L438.097,595L438.097,630L438.114,630L438.114,595L439.905,595L439.905,630L439.918,630L439.918,595L442.026,595L442.026,630L442.052,630L442.052,595L461.967,595L461.967,630L462.057,630L462.057,595L462.057,595L462.057,560L469.434,560L469.434,595L477.415,595L477.415,630L477.456,630L477.456,595L478.459,595L478.459,630L478.471,630L478.471,595L483.585,595L483.585,630L483.65,630L483.65,595L485.255,595L485.255,630L485.27,630L485.27,595L487.585,595L487.585,630L487.61,630L487.61,595L487.611,595L487.611,560L514.987,560L514.987,595L515.061,595L515.061,560L515.062,560L515.062,525L520.546,525L520.546,560L582.742,560L582.742,595L582.83,595L582.83,560L584.229,560L584.229,595L584.242,595L584.242,560L584.812,560L584.812,595L584.832,595L584.832,560L584.833,560L584.833,525L589.84,525L589.84,560L673.914,560L673.914,595L673.983,595L673.983,560L673.983,560L673.983,525L682.56,525L682.56,560L739.713,560L739.713,525L740.778,525L740.778,560L740.803,560L740.803,525L790.618,525L790.618,560L828.863,560L828.863,525L830.28,525L830.28,560L830.299,560L830.299,525L840.69,525L840.69,560L858.013,560L858.013,595L895.683,595L895.683,560L916.188,560L916.188,595L925.045,595L925.045,630L925.135,630L925.135,595L928.564,595L928.564,630L928.581,630L928.581,595L928.582,595L928.582,560L930.487,560L930.487,595L941.566,595L941.566,630L941.659,630L941.659,595L948.091,595L948.091,630L950.11,630L950.11,595L950.11,595L950.11,560L1047.698,560L1047.698,595L1047.79,595L1047.79,560L1047.79,560L1047.79,525L1057.112,525L1057.112,560L1081.683,560L1081.683,595L1081.708,595L1081.708,560L1093.479,560L1093.479,595L1119.917,595L1119.917,630L1119.975,630L1119.975,595L1123.36,595L1123.36,630L1123.378,630L1123.378,595L1141.037,595L1141.037,630L1141.123,630L1141.123,595L1150,595L1150,630" fill="none" stroke="#4e79a7" stroke-width="2"></path><g transform="translate(0,630)" fill="none" font-size="10" font-family="sans-serif" text-anchor="middle"><path class="domain" stroke="#888" d="M100.5,6V0.5H1150.5V6"></path><g class="tick" opacity="1" transform="translate(100.5,0)"><line stroke="#888" y2="6"></line><text fill="#888" y="9" dy="0.71em" font-size="11">0</text></g><g class="tick" opacity="1" transform="translate(272.5878835571412,0)"><line stroke="#888" y2="6"></line><text fill="#888" y="9" dy="0.71em" font-size="11">50</text></g><g class="tick" opacity="1" transform="translate(444.6757671142824,0)"><line stroke="#888" y2="6"></line><text fill="#888" y="9" dy="0.71em" font-size="11">100</text></g><g class="tick" opacity="1" transform="translate(616.7636506714236,0)"><line stroke="#888" y2="6"></line><text fill="#888" y="9" dy="0.71em" font-size="11">150</text></g><g class="tick" opacity="1" transform="translate(788.8515342285648,0)"><line stroke="#888" y2="6"></line><text fill="#888" y="9" dy="0.71em" font-size="11">200</text></g><g class="tick" opacity="1" transform="translate(960.9394177857062,0)"><line stroke="#888" y2="6"></line><text fill="#888" y="9" dy="0.71em" font-size="11">250</text></g><g class="tick" opacity="1" transform="translate(1133.0273013428473,0)"><line stroke="#888" y2="6"></line><text fill="#888" y="9" dy="0.71em" font-size="11">300</text></g></g><text x="625" y="675" text-anchor="middle" font-size="12" fill="#555">Elapsed time (minutes)</text><g transform="translate(100,0)" fill="none" font-size="10" font-family="sans-serif" text-anchor="end"><path class="domain" stroke="#888" d="M-6,630.5H0.5V70.5H-6"></path><g class="tick" opacity="1" transform="translate(0,630.5)"><line stroke="#888" x2="-6"></line><text fill="#888" x="-9" dy="0.32em" font-size="11">0</text></g><g class="tick" opacity="1" transform="translate(0,560.5)"><line stroke="#888" x2="-6"></line><text fill="#888" x="-9" dy="0.32em" font-size="11">2</text></g><g class="tick" opacity="1" transform="translate(0,490.5)"><line stroke="#888" x2="-6"></line><text fill="#888" x="-9" dy="0.32em" font-size="11">4</text></g><g class="tick" opacity="1" transform="translate(0,420.5)"><line stroke="#888" x2="-6"></line><text fill="#888" x="-9" dy="0.32em" font-size="11">6</text></g><g class="tick" opacity="1" transform="translate(0,350.5)"><line stroke="#888" x2="-6"></line><text fill="#888" x="-9" dy="0.32em" font-size="11">8</text></g><g class="tick" opacity="1" transform="translate(0,280.5)"><line stroke="#888" x2="-6"></line><text fill="#888" x="-9" dy="0.32em" font-size="11">10</text></g><g class="tick" opacity="1" transform="translate(0,210.5)"><line stroke="#888" x2="-6"></line><text fill="#888" x="-9" dy="0.32em" font-size="11">12</text></g><g class="tick" opacity="1" transform="translate(0,140.5)"><line stroke="#888" x2="-6"></line><text fill="#888" x="-9" dy="0.32em" font-size="11">14</text></g><g class="tick" opacity="1" transform="translate(0,70.5)"><line stroke="#888" x2="-6"></line><text fill="#888" x="-9" dy="0.32em" font-size="11">16</text></g></g><text transform="rotate(-90)" x="-350" y="55" text-anchor="middle" font-size="12" fill="#555">Concurrent agents</text></svg>