<svg xmlns="http://www.w3.org/2000/svg" viewBox="0 0 1200 730" width="1200" height="730" style="font-family: &quot;Inter&quot;, -apple-system, BlinkMacSystemFont, &quot;Segoe UI&quot;, sans-serif;"><rect width="1200" height="730" fill="#fff"></rect><text x="600" y="35" text-anchor="middle" font-size="18" font-weight="700" fill="#222">Where do issues get stuck?</text><text x="600" y="55" text-anchor="middle" font-size="13" fill="#666">minutes per phase</text><text x="240" y="72" text-anchor="middle" font-size="11" fill="#555">issue_writer</text><text x="400" y="72" text-anchor="middle" font-size="11" fill="#555">coder</text><text x="560" y="72" text-anchor="middle" font-size="11" fill="#555">reviewer</text><text x="720" y="72" text-anchor="middle" font-size="11" fill="#555">qa</text><text x="880" y="72" text-anchor="middle" font-size="11" fill="#555">synthesizer</text><text x="152" y="102.125" text-anchor="end" font-size="10" fill="#555">app-module</text><text x="152" y="138.375" text-anchor="end" font-size="10" fill="#555">ascii-renderer</text><text x="152" y="174.625" text-anchor="end" font-size="10" fill="#555">cli-module</text><text x="152" y="210.875" text-anchor="end" font-size="10" fill="#555">documentation-and-pol…</text><text x="152" y="247.125" text-anchor="end" font-size="10" fill="#555">error-module</text><text x="152" y="283.375" text-anchor="end" font-size="10" fill="#555">final-acceptance-veri…</text><text x="152" y="319.625" text-anchor="end" font-size="10" fill="#555">integration-tests</text><text x="152" y="355.875" text-anchor="end" font-size="10" fill="#555">integration-tests-reo…</text><text x="152" y="392.125" text-anchor="end" font-size="10" fill="#555">layout-module</text><text x="152" y="428.375" text-anchor="end" font-size="10" fill="#555">lexer-module</text><text x="152" y="464.625" text-anchor="end" font-size="10" fill="#555">parser-module</text><text x="152" y="500.875" text-anchor="end" font-size="10" fill="#555">project-scaffold</text><text x="152" y="537.125" text-anchor="end" font-size="10" fill="#555">smoke-test-core-compo…</text><text x="152" y="573.375" text-anchor="end" font-size="10" fill="#555">svg-renderer</text><text x="152" y="609.625" text-anchor="end" font-size="10" fill="#555">types-module</text><text x="152" y="645.875" text-anchor="end" font-size="10" fill="#555">validator-module</text><rect x="160" y="80" width="158" height="34.25" fill="rgb(255, 253, 200)" rx="3"></rect><text x="239" y="102.125" text-anchor="middle" font-size="10" fill="#333">0.8</text><rect x="320" y="80" width="158" height="34.25" fill="rgb(255, 245, 180)" rx="3"></rect><text x="399" y="102.125" text-anchor="middle" font-size="10" fill="#333">5.3</text><rect x="480" y="80" width="158" height="34.25" fill="rgb(255, 248, 186)" rx="3"></rect><text x="559" y="102.125" text-anchor="middle" font-size="10" fill="#333">4.0</text><rect x="640" y="80" width="158" height="34.25" fill="rgb(255, 244, 176)" rx="3"></rect><text x="719" y="102.125" text-anchor="middle" font-size="10" fill="#333">6.2</text><rect x="800" y="80" width="158" height="34.25" fill="rgb(255, 254, 202)" rx="3"></rect><text x="879" y="102.125" text-anchor="middle" font-size="10" fill="#333">0.5</text><rect x="160" y="116.25" width="158" height="34.25" fill="rgb(255, 253, 200)" rx="3"></rect><text x="239" y="138.375" text-anchor="middle" font-size="10" fill="#333">0.8</text><rect x="320" y="116.25" width="158" height="34.25" fill="rgb(255, 246, 182)" rx="3"></rect><text x="399" y="138.375" text-anchor="middle" font-size="10" fill="#333">5.0</text><rect x="480" y="116.25" width="158" height="34.25" fill="rgb(255, 252, 195)" rx="3"></rect><text x="559" y="138.375" text-anchor="middle" font-size="10" fill="#333">1.9</text><rect x="640" y="116.25" width="158" height="34.25" fill="rgb(255, 249, 190)" rx="3"></rect><text x="719" y="138.375" text-anchor="middle" font-size="10" fill="#333">3.1</text><rect x="800" y="116.25" width="158" height="34.25" fill="rgb(255, 255, 203)" rx="3"></rect><text x="879" y="138.375" text-anchor="middle" font-size="10" fill="#333">0.2</text><rect x="160" y="152.5" width="158" height="34.25" fill="rgb(255, 254, 201)" rx="3"></rect><text x="239" y="174.625" text-anchor="middle" font-size="10" fill="#333">0.8</text><rect x="320" y="152.5" width="158" height="34.25" fill="rgb(255, 244, 178)" rx="3"></rect><text x="399" y="174.625" text-anchor="middle" font-size="10" fill="#333">5.8</text><rect x="480" y="152.5" width="158" height="34.25" fill="rgb(255, 251, 195)" rx="3"></rect><text x="559" y="174.625" text-anchor="middle" font-size="10" fill="#333">2.1</text><rect x="640" y="152.5" width="158" height="34.25" fill="rgb(255, 247, 184)" rx="3"></rect><text x="719" y="174.625" text-anchor="middle" font-size="10" fill="#333">4.4</text><rect x="800" y="152.5" width="158" height="34.25" fill="rgb(255, 255, 203)" rx="3"></rect><text x="879" y="174.625" text-anchor="middle" font-size="10" fill="#333">0.3</text><rect x="160" y="188.75" width="158" height="34.25" fill="rgb(255, 253, 200)" rx="3"></rect><text x="239" y="210.875" text-anchor="middle" font-size="10" fill="#333">0.9</text><rect x="320" y="188.75" width="158" height="34.25" fill="rgb(128, 0, 38)" rx="3"></rect><text x="399" y="210.875" text-anchor="middle" font-size="10" fill="#fff">79.1</text><rect x="480" y="188.75" width="158" height="34.25" fill="rgb(255, 252, 198)" rx="3"></rect><text x="559" y="210.875" text-anchor="middle" font-size="10" fill="#333">1.4</text><rect x="640" y="188.75" width="158" height="34.25" fill="rgb(224, 29, 32)" rx="3"></rect><text x="719" y="210.875" text-anchor="middle" font-size="10" fill="#fff">59.8</text><rect x="800" y="188.75" width="158" height="34.25" fill="rgb(255, 255, 203)" rx="3"></rect><text x="879" y="210.875" text-anchor="middle" font-size="10" fill="#333">0.3</text><rect x="160" y="225" width="158" height="34.25" fill="rgb(255, 254, 201)" rx="3"></rect><text x="239" y="247.125" text-anchor="middle" font-size="10" fill="#333">0.7</text><rect x="320" y="225" width="158" height="34.25" fill="rgb(255, 250, 192)" rx="3"></rect><text x="399" y="247.125" text-anchor="middle" font-size="10" fill="#333">2.7</text><rect x="480" y="225" width="158" height="34.25" fill="rgb(255, 253, 198)" rx="3"></rect><text x="559" y="247.125" text-anchor="middle" font-size="10" fill="#333">1.3</text><rect x="640" y="225" width="158" height="34.25" fill="rgb(255, 250, 193)" rx="3"></rect><text x="719" y="247.125" text-anchor="middle" font-size="10" fill="#333">2.5</text><rect x="800" y="225" width="158" height="34.25" fill="rgb(255, 255, 203)" rx="3"></rect><text x="879" y="247.125" text-anchor="middle" font-size="10" fill="#333">0.2</text><rect x="160" y="261.25" width="158" height="34.25" fill="rgb(255, 253, 200)" rx="3"></rect><text x="239" y="283.375" text-anchor="middle" font-size="10" fill="#333">0.9</text><rect x="320" y="261.25" width="158" height="34.25" fill="rgb(254, 164, 71)" rx="3"></rect><text x="399" y="283.375" text-anchor="middle" font-size="10" fill="#333">33.4</text><rect x="480" y="261.25" width="158" height="34.25" fill="rgb(255, 245, 181)" rx="3"></rect><text x="559" y="283.375" text-anchor="middle" font-size="10" fill="#333">5.2</text><rect x="640" y="261.25" width="158" height="34.25" fill="rgb(254, 210, 113)" rx="3"></rect><text x="719" y="283.375" text-anchor="middle" font-size="10" fill="#333">20.9</text><rect x="800" y="261.25" width="158" height="34.25" fill="rgb(255, 253, 200)" rx="3"></rect><text x="879" y="283.375" text-anchor="middle" font-size="10" fill="#333">1.0</text><rect x="160" y="297.5" width="158" height="34.25" fill="rgb(255, 254, 200)" rx="3"></rect><text x="239" y="319.625" text-anchor="middle" font-size="10" fill="#333">0.8</text><rect x="320" y="297.5" width="158" height="34.25" fill="rgb(254, 162, 70)" rx="3"></rect><text x="399" y="319.625" text-anchor="middle" font-size="10" fill="#333">33.9</text><rect x="480" y="297.5" width="158" height="34.25" fill="rgb(255, 248, 186)" rx="3"></rect><text x="559" y="319.625" text-anchor="middle" font-size="10" fill="#333">4.0</text><rect x="640" y="297.5" width="158" height="34.25" fill="rgb(191, 6, 36)" rx="3"></rect><text x="719" y="319.625" text-anchor="middle" font-size="10" fill="#fff">68.0</text><rect x="800" y="297.5" width="158" height="34.25" fill="rgb(255, 254, 201)" rx="3"></rect><text x="879" y="319.625" text-anchor="middle" font-size="10" fill="#333">0.8</text><rect x="160" y="333.75" width="158" height="34.25" fill="rgb(255, 252, 196)" rx="3"></rect><text x="239" y="355.875" text-anchor="middle" font-size="10" fill="#333">1.8</text><rect x="320" y="333.75" width="158" height="34.25" fill="rgb(253, 143, 62)" rx="3"></rect><text x="399" y="355.875" text-anchor="middle" font-size="10" fill="#333">38.2</text><rect x="480" y="333.75" width="158" height="34.25" fill="rgb(255, 249, 189)" rx="3"></rect><text x="559" y="355.875" text-anchor="middle" font-size="10" fill="#333">3.4</text><rect x="640" y="333.75" width="158" height="34.25" fill="#fafafa" rx="3"></rect><rect x="800" y="333.75" width="158" height="34.25" fill="#fafafa" rx="3"></rect><rect x="160" y="370" width="158" height="34.25" fill="rgb(255, 254, 201)" rx="3"></rect><text x="239" y="392.125" text-anchor="middle" font-size="10" fill="#333">0.8</text><rect x="320" y="370" width="158" height="34.25" fill="rgb(255, 249, 190)" rx="3"></rect><text x="399" y="392.125" text-anchor="middle" font-size="10" fill="#333">3.2</text><rect x="480" y="370" width="158" height="34.25" fill="rgb(255, 252, 197)" rx="3"></rect><text x="559" y="392.125" text-anchor="middle" font-size="10" fill="#333">1.5</text><rect x="640" y="370" width="158" height="34.25" fill="rgb(255, 251, 195)" rx="3"></rect><text x="719" y="392.125" text-anchor="middle" font-size="10" fill="#333">2.0</text><rect x="800" y="370" width="158" height="34.25" fill="rgb(255, 255, 203)" rx="3"></rect><text x="879" y="392.125" text-anchor="middle" font-size="10" fill="#333">0.2</text><rect x="160" y="406.25" width="158" height="34.25" fill="rgb(255, 253, 200)" rx="3"></rect><text x="239" y="428.375" text-anchor="middle" font-size="10" fill="#333">0.8</text><rect x="320" y="406.25" width="158" height="34.25" fill="rgb(255, 248, 187)" rx="3"></rect><text x="399" y="428.375" text-anchor="middle" font-size="10" fill="#333">3.8</text><rect x="480" y="406.25" width="158" height="34.25" fill="rgb(255, 252, 197)" rx="3"></rect><text x="559" y="428.375" text-anchor="middle" font-size="10" fill="#333">1.5</text><rect x="640" y="406.25" width="158" height="34.25" fill="rgb(255, 250, 191)" rx="3"></rect><text x="719" y="428.375" text-anchor="middle" font-size="10" fill="#333">2.9</text><rect x="800" y="406.25" width="158" height="34.25" fill="rgb(255, 255, 203)" rx="3"></rect><text x="879" y="428.375" text-anchor="middle" font-size="10" fill="#333">0.3</text><rect x="160" y="442.5" width="158" height="34.25" fill="rgb(255, 254, 201)" rx="3"></rect><text x="239" y="464.625" text-anchor="middle" font-size="10" fill="#333">0.8</text><rect x="320" y="442.5" width="158" height="34.25" fill="rgb(255, 248, 186)" rx="3"></rect><text x="399" y="464.625" text-anchor="middle" font-size="10" fill="#333">4.1</text><rect x="480" y="442.5" width="158" height="34.25" fill="rgb(255, 253, 198)" rx="3"></rect><text x="559" y="464.625" text-anchor="middle" font-size="10" fill="#333">1.3</text><rect x="640" y="442.5" width="158" height="34.25" fill="rgb(255, 249, 189)" rx="3"></rect><text x="719" y="464.625" text-anchor="middle" font-size="10" fill="#333">3.3</text><rect x="800" y="442.5" width="158" height="34.25" fill="rgb(255, 255, 203)" rx="3"></rect><text x="879" y="464.625" text-anchor="middle" font-size="10" fill="#333">0.2</text><rect x="160" y="478.75" width="158" height="34.25" fill="rgb(255, 254, 201)" rx="3"></rect><text x="239" y="500.875" text-anchor="middle" font-size="10" fill="#333">0.7</text><rect x="320" y="478.75" width="158" height="34.25" fill="rgb(255, 251, 194)" rx="3"></rect><text x="399" y="500.875" text-anchor="middle" font-size="10" fill="#333">2.3</text><rect x="480" y="478.75" width="158" height="34.25" fill="rgb(255, 252, 197)" rx="3"></rect><text x="559" y="500.875" text-anchor="middle" font-size="10" fill="#333">1.7</text><rect x="640" y="478.75" width="158" height="34.25" fill="rgb(255, 252, 196)" rx="3"></rect><text x="719" y="500.875" text-anchor="middle" font-size="10" fill="#333">1.7</text><rect x="800" y="478.75" width="158" height="34.25" fill="rgb(255, 255, 203)" rx="3"></rect><text x="879" y="500.875" text-anchor="middle" font-size="10" fill="#333">0.2</text><rect x="160" y="515" width="158" height="34.25" fill="rgb(255, 254, 201)" rx="3"></rect><text x="239" y="537.125" text-anchor="middle" font-size="10" fill="#333">0.7</text><rect x="320" y="515" width="158" height="34.25" fill="rgb(255, 250, 192)" rx="3"></rect><text x="399" y="537.125" text-anchor="middle" font-size="10" fill="#333">2.7</text><rect x="480" y="515" width="158" height="34.25" fill="rgb(255, 252, 196)" rx="3"></rect><text x="559" y="537.125" text-anchor="middle" font-size="10" fill="#333">1.7</text><rect x="640" y="515" width="158" height="34.25" fill="rgb(255, 248, 187)" rx="3"></rect><text x="719" y="537.125" text-anchor="middle" font-size="10" fill="#333">3.8</text><rect x="800" y="515" width="158" height="34.25" fill="rgb(255, 255, 203)" rx="3"></rect><text x="879" y="537.125" text-anchor="middle" font-size="10" fill="#333">0.2</text><rect x="160" y="551.25" width="158" height="34.25" fill="rgb(255, 253, 200)" rx="3"></rect><text x="239" y="573.375" text-anchor="middle" font-size="10" fill="#333">0.8</text><rect x="320" y="551.25" width="158" height="34.25" fill="rgb(255, 247, 185)" rx="3"></rect><text x="399" y="573.375" text-anchor="middle" font-size="10" fill="#333">4.2</text><rect x="480" y="551.25" width="158" height="34.25" fill="rgb(255, 251, 195)" rx="3"></rect><text x="559" y="573.375" text-anchor="middle" font-size="10" fill="#333">2.0</text><rect x="640" y="551.25" width="158" height="34.25" fill="rgb(255, 250, 192)" rx="3"></rect><text x="719" y="573.375" text-anchor="middle" font-size="10" fill="#333">2.8</text><rect x="800" y="551.25" width="158" height="34.25" fill="rgb(255, 255, 203)" rx="3"></rect><text x="879" y="573.375" text-anchor="middle" font-size="10" fill="#333">0.2</text><rect x="160" y="587.5" width="158" height="34.25" fill="rgb(255, 254, 201)" rx="3"></rect><text x="239" y="609.625" text-anchor="middle" font-size="10" fill="#333">0.7</text><rect x="320" y="587.5" width="158" height="34.25" fill="rgb(255, 249, 189)" rx="3"></rect><text x="399" y="609.625" text-anchor="middle" font-size="10" fill="#333">3.4</text><rect x="480" y="587.5" width="158" height="34.25" fill="rgb(255, 252, 198)" rx="3"></rect><text x="559" y="609.625" text-anchor="middle" font-size="10" fill="#333">1.4</text><rect x="640" y="587.5" width="158" height="34.25" fill="rgb(255, 251, 194)" rx="3"></rect><text x="719" y="609.625" text-anchor="middle" font-size="10" fill="#333">2.3</text><rect x="800" y="587.5" width="158" height="34.25" fill="rgb(255, 255, 203)" rx="3"></rect><text x="879" y="609.625" text-anchor="middle" font-size="10" fill="#333">0.2</text><rect x="160" y="623.75" width="158" height="34.25" fill="rgb(255, 253, 200)" rx="3"></rect><text x="239" y="645.875" text-anchor="middle" font-size="10" fill="#333">0.9</text><rect x="320" y="623.75" width="158" height="34.25" fill="rgb(255, 250, 193)" rx="3"></rect><text x="399" y="645.875" text-anchor="middle" font-size="10" fill="#333">2.5</text><rect x="480" y="623.75" width="158" height="34.25" fill="rgb(255, 252, 197)" rx="3"></rect><text x="559" y="645.875" text-anchor="middle" font-size="10" fill="#333">1.5</text><rect x="640" y="623.75" width="158" height="34.25" fill="rgb(255, 249, 190)" rx="3"></rect><text x="719" y="645.875" text-anchor="middle" font-size="10" fill="#333">3.2</text><rect x="800" y="623.75" width="158" height="34.25" fill="rgb(255, 255, 203)" rx="3"></rect><text x="879" y="645.875" text-anchor="middle" font-size="10" fill="#333">0.2</text></svg>