<svg xmlns="http://www.w3.org/2000/svg" viewBox="0 0 1200 730" width="1200" height="730" style="font-family: &quot;Inter&quot;, -apple-system, BlinkMacSystemFont, &quot;Segoe UI&quot;, sans-serif;"><rect width="1200" height="730" fill="#fff"></rect><text x="600" y="35" text-anchor="middle" font-size="18" font-weight="700" fill="#222">Where does each issue spend money?</text><text x="240" y="72" text-anchor="middle" font-size="11" fill="#555">issue_writer</text><text x="400" y="72" text-anchor="middle" font-size="11" fill="#555">coder</text><text x="560" y="72" text-anchor="middle" font-size="11" fill="#555">reviewer</text><text x="720" y="72" text-anchor="middle" font-size="11" fill="#555">qa</text><text x="880" y="72" text-anchor="middle" font-size="11" fill="#555">synthesizer</text><text x="152" y="102.125" text-anchor="end" font-size="10" fill="#555">app-module</text><text x="152" y="138.375" text-anchor="end" font-size="10" fill="#555">ascii-renderer</text><text x="152" y="174.625" text-anchor="end" font-size="10" fill="#555">cli-module</text><text x="152" y="210.875" text-anchor="end" font-size="10" fill="#555">documentation-and-pol…</text><text x="152" y="247.125" text-anchor="end" font-size="10" fill="#555">error-module</text><text x="152" y="283.375" text-anchor="end" font-size="10" fill="#555">final-acceptance-veri…</text><text x="152" y="319.625" text-anchor="end" font-size="10" fill="#555">integration-tests</text><text x="152" y="355.875" text-anchor="end" font-size="10" fill="#555">integration-tests-reo…</text><text x="152" y="392.125" text-anchor="end" font-size="10" fill="#555">layout-module</text><text x="152" y="428.375" text-anchor="end" font-size="10" fill="#555">lexer-module</text><text x="152" y="464.625" text-anchor="end" font-size="10" fill="#555">parser-module</text><text x="152" y="500.875" text-anchor="end" font-size="10" fill="#555">project-scaffold</text><text x="152" y="537.125" text-anchor="end" font-size="10" fill="#555">smoke-test-core-compo…</text><text x="152" y="573.375" text-anchor="end" font-size="10" fill="#555">svg-renderer</text><text x="152" y="609.625" text-anchor="end" font-size="10" fill="#555">types-module</text><text x="152" y="645.875" text-anchor="end" font-size="10" fill="#555">validator-module</text><rect x="160" y="80" width="158" height="34.25" fill="rgb(255, 246, 183)" rx="3"></rect><text x="239" y="102.125" text-anchor="middle" font-size="10" fill="#333">$0.34</text><rect x="320" y="80" width="158" height="34.25" fill="rgb(254, 195, 96)" rx="3"></rect><text x="399" y="102.125" text-anchor="middle" font-size="10" fill="#333">$1.82</text><rect x="480" y="80" width="158" height="34.25" fill="rgb(254, 221, 129)" rx="3"></rect><text x="559" y="102.125" text-anchor="middle" font-size="10" fill="#333">$1.24</text><rect x="640" y="80" width="158" height="34.25" fill="rgb(254, 208, 110)" rx="3"></rect><text x="719" y="102.125" text-anchor="middle" font-size="10" fill="#333">$1.56</text><rect x="800" y="80" width="158" height="34.25" fill="rgb(255, 254, 202)" rx="3"></rect><text x="879" y="102.125" text-anchor="middle" font-size="10" fill="#333">$0.03</text><rect x="160" y="116.25" width="158" height="34.25" fill="rgb(255, 246, 183)" rx="3"></rect><text x="239" y="138.375" text-anchor="middle" font-size="10" fill="#333">$0.34</text><rect x="320" y="116.25" width="158" height="34.25" fill="rgb(254, 186, 87)" rx="3"></rect><text x="399" y="138.375" text-anchor="middle" font-size="10" fill="#333">$1.98</text><rect x="480" y="116.25" width="158" height="34.25" fill="rgb(255, 239, 165)" rx="3"></rect><text x="559" y="138.375" text-anchor="middle" font-size="10" fill="#333">$0.64</text><rect x="640" y="116.25" width="158" height="34.25" fill="rgb(254, 223, 133)" rx="3"></rect><text x="719" y="138.375" text-anchor="middle" font-size="10" fill="#333">$1.17</text><rect x="800" y="116.25" width="158" height="34.25" fill="rgb(255, 255, 203)" rx="3"></rect><text x="879" y="138.375" text-anchor="middle" font-size="10" fill="#333">$0.02</text><rect x="160" y="152.5" width="158" height="34.25" fill="rgb(255, 246, 183)" rx="3"></rect><text x="239" y="174.625" text-anchor="middle" font-size="10" fill="#333">$0.34</text><rect x="320" y="152.5" width="158" height="34.25" fill="rgb(254, 206, 107)" rx="3"></rect><text x="399" y="174.625" text-anchor="middle" font-size="10" fill="#333">$1.61</text><rect x="480" y="152.5" width="158" height="34.25" fill="rgb(255, 238, 162)" rx="3"></rect><text x="559" y="174.625" text-anchor="middle" font-size="10" fill="#333">$0.68</text><rect x="640" y="152.5" width="158" height="34.25" fill="rgb(254, 190, 90)" rx="3"></rect><text x="719" y="174.625" text-anchor="middle" font-size="10" fill="#333">$1.91</text><rect x="800" y="152.5" width="158" height="34.25" fill="rgb(255, 255, 203)" rx="3"></rect><text x="879" y="174.625" text-anchor="middle" font-size="10" fill="#333">$0.02</text><rect x="160" y="188.75" width="158" height="34.25" fill="rgb(255, 246, 183)" rx="3"></rect><text x="239" y="210.875" text-anchor="middle" font-size="10" fill="#333">$0.34</text><rect x="320" y="188.75" width="158" height="34.25" fill="rgb(128, 0, 38)" rx="3"></rect><text x="399" y="210.875" text-anchor="middle" font-size="10" fill="#fff">$5.69</text><rect x="480" y="188.75" width="158" height="34.25" fill="rgb(255, 236, 160)" rx="3"></rect><text x="559" y="210.875" text-anchor="middle" font-size="10" fill="#333">$0.72</text><rect x="640" y="188.75" width="158" height="34.25" fill="rgb(254, 169, 74)" rx="3"></rect><text x="719" y="210.875" text-anchor="middle" font-size="10" fill="#333">$2.31</text><rect x="800" y="188.75" width="158" height="34.25" fill="rgb(255, 255, 203)" rx="3"></rect><text x="879" y="210.875" text-anchor="middle" font-size="10" fill="#333">$0.02</text><rect x="160" y="225" width="158" height="34.25" fill="rgb(255, 247, 183)" rx="3"></rect><text x="239" y="247.125" text-anchor="middle" font-size="10" fill="#333">$0.33</text><rect x="320" y="225" width="158" height="34.25" fill="rgb(255, 227, 140)" rx="3"></rect><text x="399" y="247.125" text-anchor="middle" font-size="10" fill="#333">$1.05</text><rect x="480" y="225" width="158" height="34.25" fill="rgb(255, 249, 189)" rx="3"></rect><text x="559" y="247.125" text-anchor="middle" font-size="10" fill="#333">$0.25</text><rect x="640" y="225" width="158" height="34.25" fill="rgb(255, 240, 167)" rx="3"></rect><text x="719" y="247.125" text-anchor="middle" font-size="10" fill="#333">$0.60</text><rect x="800" y="225" width="158" height="34.25" fill="rgb(255, 255, 203)" rx="3"></rect><text x="879" y="247.125" text-anchor="middle" font-size="10" fill="#333">$0.02</text><rect x="160" y="261.25" width="158" height="34.25" fill="rgb(255, 246, 183)" rx="3"></rect><text x="239" y="283.375" text-anchor="middle" font-size="10" fill="#333">$0.34</text><rect x="320" y="261.25" width="158" height="34.25" fill="rgb(253, 151, 65)" rx="3"></rect><text x="399" y="283.375" text-anchor="middle" font-size="10" fill="#333">$2.62</text><rect x="480" y="261.25" width="158" height="34.25" fill="rgb(254, 224, 134)" rx="3"></rect><text x="559" y="283.375" text-anchor="middle" font-size="10" fill="#333">$1.15</text><rect x="640" y="261.25" width="158" height="34.25" fill="rgb(254, 219, 126)" rx="3"></rect><text x="719" y="283.375" text-anchor="middle" font-size="10" fill="#333">$1.30</text><rect x="800" y="261.25" width="158" height="34.25" fill="rgb(255, 254, 201)" rx="3"></rect><text x="879" y="283.375" text-anchor="middle" font-size="10" fill="#333">$0.05</text><rect x="160" y="297.5" width="158" height="34.25" fill="rgb(255, 246, 183)" rx="3"></rect><text x="239" y="319.625" text-anchor="middle" font-size="10" fill="#333">$0.34</text><rect x="320" y="297.5" width="158" height="34.25" fill="rgb(226, 31, 32)" rx="3"></rect><text x="399" y="319.625" text-anchor="middle" font-size="10" fill="#fff">$4.25</text><rect x="480" y="297.5" width="158" height="34.25" fill="rgb(254, 226, 137)" rx="3"></rect><text x="559" y="319.625" text-anchor="middle" font-size="10" fill="#333">$1.10</text><rect x="640" y="297.5" width="158" height="34.25" fill="rgb(253, 129, 57)" rx="3"></rect><text x="719" y="319.625" text-anchor="middle" font-size="10" fill="#333">$2.96</text><rect x="800" y="297.5" width="158" height="34.25" fill="rgb(255, 254, 202)" rx="3"></rect><text x="879" y="319.625" text-anchor="middle" font-size="10" fill="#333">$0.04</text><rect x="160" y="333.75" width="158" height="34.25" fill="rgb(255, 243, 175)" rx="3"></rect><text x="239" y="355.875" text-anchor="middle" font-size="10" fill="#333">$0.46</text><rect x="320" y="333.75" width="158" height="34.25" fill="rgb(254, 217, 123)" rx="3"></rect><text x="399" y="355.875" text-anchor="middle" font-size="10" fill="#333">$1.33</text><rect x="480" y="333.75" width="158" height="34.25" fill="rgb(255, 237, 161)" rx="3"></rect><text x="559" y="355.875" text-anchor="middle" font-size="10" fill="#333">$0.70</text><rect x="640" y="333.75" width="158" height="34.25" fill="#fafafa" rx="3"></rect><rect x="800" y="333.75" width="158" height="34.25" fill="#fafafa" rx="3"></rect><rect x="160" y="370" width="158" height="34.25" fill="rgb(255, 247, 183)" rx="3"></rect><text x="239" y="392.125" text-anchor="middle" font-size="10" fill="#333">$0.33</text><rect x="320" y="370" width="158" height="34.25" fill="rgb(254, 224, 134)" rx="3"></rect><text x="399" y="392.125" text-anchor="middle" font-size="10" fill="#333">$1.16</text><rect x="480" y="370" width="158" height="34.25" fill="rgb(255, 240, 169)" rx="3"></rect><text x="559" y="392.125" text-anchor="middle" font-size="10" fill="#333">$0.57</text><rect x="640" y="370" width="158" height="34.25" fill="rgb(255, 242, 173)" rx="3"></rect><text x="719" y="392.125" text-anchor="middle" font-size="10" fill="#333">$0.50</text><rect x="800" y="370" width="158" height="34.25" fill="rgb(255, 255, 203)" rx="3"></rect><text x="879" y="392.125" text-anchor="middle" font-size="10" fill="#333">$0.02</text><rect x="160" y="406.25" width="158" height="34.25" fill="rgb(255, 246, 183)" rx="3"></rect><text x="239" y="428.375" text-anchor="middle" font-size="10" fill="#333">$0.34</text><rect x="320" y="406.25" width="158" height="34.25" fill="rgb(255, 227, 140)" rx="3"></rect><text x="399" y="428.375" text-anchor="middle" font-size="10" fill="#333">$1.05</text><rect x="480" y="406.25" width="158" height="34.25" fill="rgb(255, 244, 178)" rx="3"></rect><text x="559" y="428.375" text-anchor="middle" font-size="10" fill="#333">$0.42</text><rect x="640" y="406.25" width="158" height="34.25" fill="rgb(255, 240, 168)" rx="3"></rect><text x="719" y="428.375" text-anchor="middle" font-size="10" fill="#333">$0.58</text><rect x="800" y="406.25" width="158" height="34.25" fill="rgb(255, 255, 203)" rx="3"></rect><text x="879" y="428.375" text-anchor="middle" font-size="10" fill="#333">$0.02</text><rect x="160" y="442.5" width="158" height="34.25" fill="rgb(255, 246, 183)" rx="3"></rect><text x="239" y="464.625" text-anchor="middle" font-size="10" fill="#333">$0.34</text><rect x="320" y="442.5" width="158" height="34.25" fill="rgb(254, 205, 106)" rx="3"></rect><text x="399" y="464.625" text-anchor="middle" font-size="10" fill="#333">$1.63</text><rect x="480" y="442.5" width="158" height="34.25" fill="rgb(255, 238, 163)" rx="3"></rect><text x="559" y="464.625" text-anchor="middle" font-size="10" fill="#333">$0.67</text><rect x="640" y="442.5" width="158" height="34.25" fill="rgb(255, 228, 142)" rx="3"></rect><text x="719" y="464.625" text-anchor="middle" font-size="10" fill="#333">$1.02</text><rect x="800" y="442.5" width="158" height="34.25" fill="rgb(255, 255, 203)" rx="3"></rect><text x="879" y="464.625" text-anchor="middle" font-size="10" fill="#333">$0.02</text><rect x="160" y="478.75" width="158" height="34.25" fill="rgb(255, 247, 184)" rx="3"></rect><text x="239" y="500.875" text-anchor="middle" font-size="10" fill="#333">$0.33</text><rect x="320" y="478.75" width="158" height="34.25" fill="rgb(255, 239, 165)" rx="3"></rect><text x="399" y="500.875" text-anchor="middle" font-size="10" fill="#333">$0.63</text><rect x="480" y="478.75" width="158" height="34.25" fill="rgb(255, 245, 180)" rx="3"></rect><text x="559" y="500.875" text-anchor="middle" font-size="10" fill="#333">$0.40</text><rect x="640" y="478.75" width="158" height="34.25" fill="rgb(255, 246, 182)" rx="3"></rect><text x="719" y="500.875" text-anchor="middle" font-size="10" fill="#333">$0.35</text><rect x="800" y="478.75" width="158" height="34.25" fill="rgb(255, 255, 203)" rx="3"></rect><text x="879" y="500.875" text-anchor="middle" font-size="10" fill="#333">$0.02</text><rect x="160" y="515" width="158" height="34.25" fill="rgb(255, 247, 184)" rx="3"></rect><text x="239" y="537.125" text-anchor="middle" font-size="10" fill="#333">$0.33</text><rect x="320" y="515" width="158" height="34.25" fill="rgb(254, 220, 127)" rx="3"></rect><text x="399" y="537.125" text-anchor="middle" font-size="10" fill="#333">$1.27</text><rect x="480" y="515" width="158" height="34.25" fill="rgb(255, 239, 165)" rx="3"></rect><text x="559" y="537.125" text-anchor="middle" font-size="10" fill="#333">$0.63</text><rect x="640" y="515" width="158" height="34.25" fill="rgb(255, 238, 163)" rx="3"></rect><text x="719" y="537.125" text-anchor="middle" font-size="10" fill="#333">$0.66</text><rect x="800" y="515" width="158" height="34.25" fill="rgb(255, 255, 203)" rx="3"></rect><text x="879" y="537.125" text-anchor="middle" font-size="10" fill="#333">$0.01</text><rect x="160" y="551.25" width="158" height="34.25" fill="rgb(255, 246, 183)" rx="3"></rect><text x="239" y="573.375" text-anchor="middle" font-size="10" fill="#333">$0.34</text><rect x="320" y="551.25" width="158" height="34.25" fill="rgb(254, 203, 104)" rx="3"></rect><text x="399" y="573.375" text-anchor="middle" font-size="10" fill="#333">$1.67</text><rect x="480" y="551.25" width="158" height="34.25" fill="rgb(255, 241, 171)" rx="3"></rect><text x="559" y="573.375" text-anchor="middle" font-size="10" fill="#333">$0.54</text><rect x="640" y="551.25" width="158" height="34.25" fill="rgb(255, 231, 148)" rx="3"></rect><text x="719" y="573.375" text-anchor="middle" font-size="10" fill="#333">$0.92</text><rect x="800" y="551.25" width="158" height="34.25" fill="rgb(255, 255, 203)" rx="3"></rect><text x="879" y="573.375" text-anchor="middle" font-size="10" fill="#333">$0.02</text><rect x="160" y="587.5" width="158" height="34.25" fill="rgb(255, 246, 183)" rx="3"></rect><text x="239" y="609.625" text-anchor="middle" font-size="10" fill="#333">$0.34</text><rect x="320" y="587.5" width="158" height="34.25" fill="rgb(254, 223, 133)" rx="3"></rect><text x="399" y="609.625" text-anchor="middle" font-size="10" fill="#333">$1.17</text><rect x="480" y="587.5" width="158" height="34.25" fill="rgb(255, 241, 171)" rx="3"></rect><text x="559" y="609.625" text-anchor="middle" font-size="10" fill="#333">$0.54</text><rect x="640" y="587.5" width="158" height="34.25" fill="rgb(255, 233, 153)" rx="3"></rect><text x="719" y="609.625" text-anchor="middle" font-size="10" fill="#333">$0.83</text><rect x="800" y="587.5" width="158" height="34.25" fill="rgb(255, 255, 203)" rx="3"></rect><text x="879" y="609.625" text-anchor="middle" font-size="10" fill="#333">$0.02</text><rect x="160" y="623.75" width="158" height="34.25" fill="rgb(255, 246, 183)" rx="3"></rect><text x="239" y="645.875" text-anchor="middle" font-size="10" fill="#333">$0.34</text><rect x="320" y="623.75" width="158" height="34.25" fill="rgb(255, 239, 165)" rx="3"></rect><text x="399" y="645.875" text-anchor="middle" font-size="10" fill="#333">$0.63</text><rect x="480" y="623.75" width="158" height="34.25" fill="rgb(255, 246, 183)" rx="3"></rect><text x="559" y="645.875" text-anchor="middle" font-size="10" fill="#333">$0.34</text><rect x="640" y="623.75" width="158" height="34.25" fill="rgb(255, 237, 160)" rx="3"></rect><text x="719" y="645.875" text-anchor="middle" font-size="10" fill="#333">$0.71</text><rect x="800" y="623.75" width="158" height="34.25" fill="rgb(255, 255, 203)" rx="3"></rect><text x="879" y="645.875" text-anchor="middle" font-size="10" fill="#333">$0.02</text></svg>