<svg xmlns="http://www.w3.org/2000/svg" viewBox="0 0 1400 700" width="1400" height="700" style="font-family: &quot;Inter&quot;, -apple-system, BlinkMacSystemFont, &quot;Segoe UI&quot;, sans-serif;"><rect width="1400" height="700" fill="#fff"></rect><text x="700" y="35" text-anchor="middle" font-size="18" font-weight="700" fill="#222">How variable is each phase?</text><line x1="80" x2="1340" y1="630" y2="630" stroke="#f0f0f0" stroke-width="1"></line><line x1="80" x2="1340" y1="544.8114709396827" y2="544.8114709396827" stroke="#f0f0f0" stroke-width="1"></line><line x1="80" x2="1340" y1="459.62294187936544" y2="459.62294187936544" stroke="#f0f0f0" stroke-width="1"></line><line x1="80" x2="1340" y1="374.4344128190482" y2="374.4344128190482" stroke="#f0f0f0" stroke-width="1"></line><line x1="80" x2="1340" y1="289.2458837587309" y2="289.2458837587309" stroke="#f0f0f0" stroke-width="1"></line><line x1="80" x2="1340" y1="204.05735469841366" y2="204.05735469841366" stroke="#f0f0f0" stroke-width="1"></line><line x1="80" x2="1340" y1="118.86882563809635" y2="118.86882563809635" stroke="#f0f0f0" stroke-width="1"></line><path d="M199,587.406L190.833,573.208C182.667,559.01,166.333,530.613,158.167,502.217C150,473.821,150,445.425,150,417.029C150,388.633,150,360.236,150,331.84C150,303.444,150,275.048,150,246.652C150,218.255,150,189.859,150,164.49C150,139.12,150,116.777,150,105.606L150,94.434L150,94.434L150,105.606C150,116.777,150,139.12,150,164.49C150,189.859,150,218.255,150,246.652C150,275.048,150,303.444,150,331.84C150,360.236,150,388.633,150,417.029C150,445.425,150,473.821,150,502.217C150,530.613,150,559.01,150,573.208L150,587.406Z" fill="#edc948" opacity="0.6"></path><path d="M101,587.406L109.167,573.208C117.333,559.01,133.667,530.613,141.833,502.217C150,473.821,150,445.425,150,417.029C150,388.633,150,360.236,150,331.84C150,303.444,150,275.048,150,246.652C150,218.255,150,189.859,150,164.49C150,139.12,150,116.777,150,105.606L150,94.434L150,94.434L150,105.606C150,116.777,150,139.12,150,164.49C150,189.859,150,218.255,150,246.652C150,275.048,150,303.444,150,331.84C150,360.236,150,388.633,150,417.029C150,445.425,150,473.821,150,502.217C150,530.613,150,559.01,150,573.208L150,587.406Z" fill="#edc948" opacity="0.6"></path><circle cx="154.3087998621552" cy="624.3396481865872" r="3" fill="#edc948" opacity="0.5"></circle><circle cx="151.57938295831798" cy="624.2182545326763" r="3" fill="#edc948" opacity="0.5"></circle><circle cx="141.90649987372237" cy="623.6399664012384" r="3" fill="#edc948" opacity="0.5"></circle><circle cx="152.59776304744312" cy="623.6196631351457" r="3" fill="#edc948" opacity="0.5"></circle><circle cx="159.2410323208342" cy="623.5344746060855" r="3" fill="#edc948" opacity="0.5"></circle><circle cx="159.53400477148463" cy="623.3924937243182" r="3" fill="#edc948" opacity="0.5"></circle><circle cx="146.62298659362958" cy="623.3649494332554" r="3" fill="#edc948" opacity="0.5"></circle><circle cx="149.96550579026302" cy="623.1711455296431" r="3" fill="#edc948" opacity="0.5"></circle><circle cx="155.42614268906303" cy="622.9655572128444" r="3" fill="#edc948" opacity="0.5"></circle><circle cx="143.12124588588173" cy="622.8695781367697" r="3" fill="#edc948" opacity="0.5"></circle><circle cx="157.60579327133132" cy="622.8397621515985" r="3" fill="#edc948" opacity="0.5"></circle><circle cx="144.62733728200297" cy="622.8106560708363" r="3" fill="#edc948" opacity="0.5"></circle><circle cx="154.16789545320432" cy="622.5616216042166" r="3" fill="#edc948" opacity="0.5"></circle><circle cx="142.9395362378373" cy="622.5244226131936" r="3" fill="#edc948" opacity="0.5"></circle><circle cx="152.48959952304452" cy="621.9102133186688" r="3" fill="#edc948" opacity="0.5"></circle><circle cx="151.6066561476708" cy="614.3507252307379" r="3" fill="#edc948" opacity="0.5"></circle><line x1="125.5" x2="174.5" y1="623.0683513712437" y2="623.0683513712437" stroke="#222" stroke-width="2"></line><text x="150" y="650" text-anchor="middle" font-size="10" fill="#555" transform="rotate(-35, 150, 650)">issue_writer</text><path d="M339,587.406L330.833,573.208C322.667,559.01,306.333,530.613,298.167,502.217C290,473.821,290,445.425,290,417.029C290,388.633,290,360.236,290,331.84C290,303.444,290,275.048,290,246.652C290,218.255,290,189.859,290,164.49C290,139.12,290,116.777,290,105.606L290,94.434L290,94.434L290,105.606C290,116.777,290,139.12,290,164.49C290,189.859,290,218.255,290,246.652C290,275.048,290,303.444,290,331.84C290,360.236,290,388.633,290,417.029C290,445.425,290,473.821,290,502.217C290,530.613,290,559.01,290,573.208L290,587.406Z" fill="#a0cbe8" opacity="0.6"></path><path d="M241,587.406L249.167,573.208C257.333,559.01,273.667,530.613,281.833,502.217C290,473.821,290,445.425,290,417.029C290,388.633,290,360.236,290,331.84C290,303.444,290,275.048,290,246.652C290,218.255,290,189.859,290,164.49C290,139.12,290,116.777,290,105.606L290,94.434L290,94.434L290,105.606C290,116.777,290,139.12,290,164.49C290,189.859,290,218.255,290,246.652C290,275.048,290,303.444,290,331.84C290,360.236,290,388.633,290,417.029C290,445.425,290,473.821,290,502.217C290,530.613,290,559.01,290,573.208L290,587.406Z" fill="#a0cbe8" opacity="0.6"></path><circle cx="288.72318422556253" cy="626.8595248761915" r="3" fill="#a0cbe8" opacity="0.5"></circle><circle cx="284.251489480596" cy="626.7409708399158" r="3" fill="#a0cbe8" opacity="0.5"></circle><circle cx="294.17167708923967" cy="626.4798679983459" r="3" fill="#a0cbe8" opacity="0.5"></circle><circle cx="281.0917482977496" cy="625.7675499145199" r="3" fill="#a0cbe8" opacity="0.5"></circle><circle cx="292.68418554794573" cy="625.0249899028775" r="3" fill="#a0cbe8" opacity="0.5"></circle><circle cx="299.19858743763706" cy="624.8753420534948" r="3" fill="#a0cbe8" opacity="0.5"></circle><circle cx="298.13722758065325" cy="624.8655453726528" r="3" fill="#a0cbe8" opacity="0.5"></circle><circle cx="298.239480583279" cy="624.6237519310033" r="3" fill="#a0cbe8" opacity="0.5"></circle><line x1="265.5" x2="314.5" y1="625.3962699086987" y2="625.3962699086987" stroke="#222" stroke-width="2"></line><text x="290" y="650" text-anchor="middle" font-size="10" fill="#555" transform="rotate(-35, 290, 650)">workspace_setup</text><path d="M479,608.703L472.875,601.604C466.75,594.505,454.5,580.307,446.333,566.109C438.167,551.911,434.083,537.712,432.042,523.514C430,509.316,430,495.118,430,480.92C430,466.722,430,452.524,432.042,438.326C434.083,424.128,438.167,409.93,438.167,395.732C438.167,381.533,434.083,367.335,432.722,353.137C431.361,338.939,432.722,324.741,432.722,310.543C432.722,296.345,431.361,282.147,430.681,267.949C430,253.751,430,239.553,430.681,225.354C431.361,211.156,432.722,196.958,432.722,182.76C432.722,168.562,431.361,154.364,430.681,140.166C430,125.968,430,111.77,430,100.598C430,89.427,430,81.282,430,77.21L430,73.137L430,73.137L430,77.21C430,81.282,430,89.427,430,100.598C430,111.77,430,125.968,430,140.166C430,154.364,430,168.562,430,182.76C430,196.958,430,211.156,430,225.354C430,239.553,430,253.751,430,267.949C430,282.147,430,296.345,430,310.543C430,324.741,430,338.939,430,353.137C430,367.335,430,381.533,430,395.732C430,409.93,430,424.128,430,438.326C430,452.524,430,466.722,430,480.92C430,495.118,430,509.316,430,523.514C430,537.712,430,551.911,430,566.109C430,580.307,430,594.505,430,601.604L430,608.703Z" fill="#f28e2b" opacity="0.6"></path><path d="M381,608.703L387.125,601.604C393.25,594.505,405.5,580.307,413.667,566.109C421.833,551.911,425.917,537.712,427.958,523.514C430,509.316,430,495.118,430,480.92C430,466.722,430,452.524,427.958,438.326C425.917,424.128,421.833,409.93,421.833,395.732C421.833,381.533,425.917,367.335,427.278,353.137C428.639,338.939,427.278,324.741,427.278,310.543C427.278,296.345,428.639,282.147,429.319,267.949C430,253.751,430,239.553,429.319,225.354C428.639,211.156,427.278,196.958,427.278,182.76C427.278,168.562,428.639,154.364,429.319,140.166C430,125.968,430,111.77,430,100.598C430,89.427,430,81.282,430,77.21L430,73.137L430,73.137L430,77.21C430,81.282,430,89.427,430,100.598C430,111.77,430,125.968,430,140.166C430,154.364,430,168.562,430,182.76C430,196.958,430,211.156,430,225.354C430,239.553,430,253.751,430,267.949C430,282.147,430,296.345,430,310.543C430,324.741,430,338.939,430,353.137C430,367.335,430,381.533,430,395.732C430,409.93,430,424.128,430,438.326C430,452.524,430,466.722,430,480.92C430,495.118,430,509.316,430,523.514C430,537.712,430,551.911,430,566.109C430,580.307,430,594.505,430,601.604L430,608.703Z" fill="#f28e2b" opacity="0.6"></path><circle cx="431.4712125832466" cy="610.0239998397644" r="3" fill="#f28e2b" opacity="0.5"></circle><circle cx="437.17138760493896" cy="608.6141296838161" r="3" fill="#f28e2b" opacity="0.5"></circle><circle cx="424.66469671044575" cy="608.4864888711076" r="3" fill="#f28e2b" opacity="0.5"></circle><circle cx="420.58769786039494" cy="607.0490744240965" r="3" fill="#f28e2b" opacity="0.5"></circle><circle cx="433.86674166358495" cy="606.6722571638862" r="3" fill="#f28e2b" opacity="0.5"></circle><circle cx="431.642963155686" cy="606.3958203870856" r="3" fill="#f28e2b" opacity="0.5"></circle><circle cx="434.6777580095911" cy="602.6510746304757" r="3" fill="#f28e2b" opacity="0.5"></circle><circle cx="431.77761953479956" cy="600.9258649361225" r="3" fill="#f28e2b" opacity="0.5"></circle><circle cx="422.0227128431582" cy="597.5989689145537" r="3" fill="#f28e2b" opacity="0.5"></circle><circle cx="436.4086708042475" cy="595.0363559795375" r="3" fill="#f28e2b" opacity="0.5"></circle><circle cx="426.9394360519481" cy="593.9060461797889" r="3" fill="#f28e2b" opacity="0.5"></circle><circle cx="421.13855776880655" cy="587.5918724058381" r="3" fill="#f28e2b" opacity="0.5"></circle><circle cx="428.8718904060214" cy="586.5471770777951" r="3" fill="#f28e2b" opacity="0.5"></circle><circle cx="434.62758665207843" cy="580.9676123861078" r="3" fill="#f28e2b" opacity="0.5"></circle><circle cx="432.1480218672507" cy="562.4905043946886" r="3" fill="#f28e2b" opacity="0.5"></circle><circle cx="438.6691606071472" cy="408.31275497928226" r="3" fill="#f28e2b" opacity="0.5"></circle><circle cx="434.4641064760057" cy="389.6645600253335" r="3" fill="#f28e2b" opacity="0.5"></circle><circle cx="438.4331664868884" cy="388.6938367366911" r="3" fill="#f28e2b" opacity="0.5"></circle><circle cx="421.84839346973854" cy="304.57456569696274" r="3" fill="#f28e2b" opacity="0.5"></circle><circle cx="420.455134279895" cy="196.17840962650664" r="3" fill="#f28e2b" opacity="0.5"></circle><line x1="405.5" x2="454.5" y1="594.4712010796633" y2="594.4712010796633" stroke="#222" stroke-width="2"></line><text x="430" y="650" text-anchor="middle" font-size="10" fill="#555" transform="rotate(-35, 430, 650)">coder</text><path d="M619,608.703L610.833,601.604C602.667,594.505,586.333,580.307,578.167,566.109C570,551.911,570,537.712,570,523.514C570,509.316,570,495.118,570,480.92C570,466.722,570,452.524,570,438.326C570,424.128,570,409.93,570,395.732C570,381.533,570,367.335,570,353.137C570,338.939,570,324.741,570,310.543C570,296.345,570,282.147,570,267.949C570,253.751,570,239.553,570,225.354C570,211.156,570,196.958,570,182.76C570,168.562,570,154.364,570,140.166C570,125.968,570,111.77,570,100.598C570,89.427,570,81.282,570,77.21L570,73.137L570,73.137L570,77.21C570,81.282,570,89.427,570,100.598C570,111.77,570,125.968,570,140.166C570,154.364,570,168.562,570,182.76C570,196.958,570,211.156,570,225.354C570,239.553,570,253.751,570,267.949C570,282.147,570,296.345,570,310.543C570,324.741,570,338.939,570,353.137C570,367.335,570,381.533,570,395.732C570,409.93,570,424.128,570,438.326C570,452.524,570,466.722,570,480.92C570,495.118,570,509.316,570,523.514C570,537.712,570,551.911,570,566.109C570,580.307,570,594.505,570,601.604L570,608.703Z" fill="#e15759" opacity="0.6"></path><path d="M521,608.703L529.167,601.604C537.333,594.505,553.667,580.307,561.833,566.109C570,551.911,570,537.712,570,523.514C570,509.316,570,495.118,570,480.92C570,466.722,570,452.524,570,438.326C570,424.128,570,409.93,570,395.732C570,381.533,570,367.335,570,353.137C570,338.939,570,324.741,570,310.543C570,296.345,570,282.147,570,267.949C570,253.751,570,239.553,570,225.354C570,211.156,570,196.958,570,182.76C570,168.562,570,154.364,570,140.166C570,125.968,570,111.77,570,100.598C570,89.427,570,81.282,570,77.21L570,73.137L570,73.137L570,77.21C570,81.282,570,89.427,570,100.598C570,111.77,570,125.968,570,140.166C570,154.364,570,168.562,570,182.76C570,196.958,570,211.156,570,225.354C570,239.553,570,253.751,570,267.949C570,282.147,570,296.345,570,310.543C570,324.741,570,338.939,570,353.137C570,367.335,570,381.533,570,395.732C570,409.93,570,424.128,570,438.326C570,452.524,570,466.722,570,480.92C570,495.118,570,509.316,570,523.514C570,537.712,570,551.911,570,566.109C570,580.307,570,594.505,570,601.604L570,608.703Z" fill="#e15759" opacity="0.6"></path><circle cx="578.579649409713" cy="619.120430972825" r="3" fill="#e15759" opacity="0.5"></circle><circle cx="562.7183399452723" cy="618.6642463997072" r="3" fill="#e15759" opacity="0.5"></circle><circle cx="575.4185774920354" cy="618.2370259264695" r="3" fill="#e15759" opacity="0.5"></circle><circle cx="573.307032001053" cy="617.8357879545955" r="3" fill="#e15759" opacity="0.5"></circle><circle cx="572.6417796472956" cy="617.2972544700526" r="3" fill="#e15759" opacity="0.5"></circle><circle cx="568.3568885322628" cy="616.9045353510845" r="3" fill="#e15759" opacity="0.5"></circle><circle cx="566.2633759919498" cy="616.8786948306027" r="3" fill="#e15759" opacity="0.5"></circle><circle cx="576.3961369573468" cy="616.6936937416602" r="3" fill="#e15759" opacity="0.5"></circle><circle cx="571.9979570041094" cy="616.3573410327538" r="3" fill="#e15759" opacity="0.5"></circle><circle cx="568.709209127887" cy="615.8746060347454" r="3" fill="#e15759" opacity="0.5"></circle><circle cx="570.1689278499343" cy="615.3423197090001" r="3" fill="#e15759" opacity="0.5"></circle><circle cx="565.5927628433917" cy="613.6997428878353" r="3" fill="#e15759" opacity="0.5"></circle><circle cx="562.0319410573561" cy="613.2280823986048" r="3" fill="#e15759" opacity="0.5"></circle><circle cx="575.8982976419151" cy="612.0279180050267" r="3" fill="#e15759" opacity="0.5"></circle><circle cx="579.336980377033" cy="609.6236137531811" r="3" fill="#e15759" opacity="0.5"></circle><circle cx="568.7384976631878" cy="609.013095961582" r="3" fill="#e15759" opacity="0.5"></circle><circle cx="567.2794325668774" cy="608.2827463057715" r="3" fill="#e15759" opacity="0.5"></circle><circle cx="577.1940663603717" cy="607.2364891880292" r="3" fill="#e15759" opacity="0.5"></circle><circle cx="564.9829710361898" cy="601.1206627059071" r="3" fill="#e15759" opacity="0.5"></circle><line x1="545.5" x2="594.5" y1="615.8746060347454" y2="615.8746060347454" stroke="#222" stroke-width="2"></line><text x="570" y="650" text-anchor="middle" font-size="10" fill="#555" transform="rotate(-35, 570, 650)">reviewer</text><path d="M759,587.406L751.462,573.208C743.923,559.01,728.846,530.613,721.308,502.217C713.769,473.821,713.769,445.425,713.141,417.029C712.513,388.633,711.256,360.236,711.256,331.84C711.256,303.444,712.513,275.048,713.141,246.652C713.769,218.255,713.769,189.859,713.141,164.49C712.513,139.12,711.256,116.777,710.628,105.606L710,94.434L710,94.434L710,105.606C710,116.777,710,139.12,710,164.49C710,189.859,710,218.255,710,246.652C710,275.048,710,303.444,710,331.84C710,360.236,710,388.633,710,417.029C710,445.425,710,473.821,710,502.217C710,530.613,710,559.01,710,573.208L710,587.406Z" fill="#b07aa1" opacity="0.6"></path><path d="M661,587.406L668.538,573.208C676.077,559.01,691.154,530.613,698.692,502.217C706.231,473.821,706.231,445.425,706.859,417.029C707.487,388.633,708.744,360.236,708.744,331.84C708.744,303.444,707.487,275.048,706.859,246.652C706.231,218.255,706.231,189.859,706.859,164.49C707.487,139.12,708.744,116.777,709.372,105.606L710,94.434L710,94.434L710,105.606C710,116.777,710,139.12,710,164.49C710,189.859,710,218.255,710,246.652C710,275.048,710,303.444,710,331.84C710,360.236,710,388.633,710,417.029C710,445.425,710,473.821,710,502.217C710,530.613,710,559.01,710,573.208L710,587.406Z" fill="#b07aa1" opacity="0.6"></path><circle cx="705.1462969405466" cy="615.2561373137672" r="3" fill="#b07aa1" opacity="0.5"></circle><circle cx="709.4461255876831" cy="612.7628110490537" r="3" fill="#b07aa1" opacity="0.5"></circle><circle cx="715.5876402426286" cy="610.7510839352942" r="3" fill="#b07aa1" opacity="0.5"></circle><circle cx="717.8583839215341" cy="608.356292402527" r="3" fill="#b07aa1" opacity="0.5"></circle><circle cx="705.843791336671" cy="606.5569686878912" r="3" fill="#b07aa1" opacity="0.5"></circle><circle cx="703.7252033574148" cy="605.6326731475868" r="3" fill="#b07aa1" opacity="0.5"></circle><circle cx="717.9183319404992" cy="605.0379152338642" r="3" fill="#b07aa1" opacity="0.5"></circle><circle cx="706.6955029098364" cy="603.9193898473021" r="3" fill="#b07aa1" opacity="0.5"></circle><circle cx="705.0887930807548" cy="602.5345083265449" r="3" fill="#b07aa1" opacity="0.5"></circle><circle cx="703.8080131077197" cy="601.8007511295721" r="3" fill="#b07aa1" opacity="0.5"></circle><circle cx="711.0691964655341" cy="601.5341110336133" r="3" fill="#b07aa1" opacity="0.5"></circle><circle cx="714.9793672139829" cy="597.4988723929077" r="3" fill="#b07aa1" opacity="0.5"></circle><circle cx="713.754613953046" cy="592.2881740320516" r="3" fill="#b07aa1" opacity="0.5"></circle><circle cx="715.5985316959219" cy="462.7233783945157" r="3" fill="#b07aa1" opacity="0.5"></circle><circle cx="710.8006210037505" cy="451.7478302912662" r="3" fill="#b07aa1" opacity="0.5"></circle><circle cx="705.3081683325202" cy="217.6332826512293" r="3" fill="#b07aa1" opacity="0.5"></circle><circle cx="715.223572944627" cy="120.90909090909099" r="3" fill="#b07aa1" opacity="0.5"></circle><line x1="685.5" x2="734.5" y1="602.5345083265449" y2="602.5345083265449" stroke="#222" stroke-width="2"></line><text x="710" y="650" text-anchor="middle" font-size="10" fill="#555" transform="rotate(-35, 710, 650)">qa</text><path d="M899,587.406L890.833,573.208C882.667,559.01,866.333,530.613,858.167,502.217C850,473.821,850,445.425,850,417.029C850,388.633,850,360.236,850,331.84C850,303.444,850,275.048,850,246.652C850,218.255,850,189.859,850,164.49C850,139.12,850,116.777,850,105.606L850,94.434L850,94.434L850,105.606C850,116.777,850,139.12,850,164.49C850,189.859,850,218.255,850,246.652C850,275.048,850,303.444,850,331.84C850,360.236,850,388.633,850,417.029C850,445.425,850,473.821,850,502.217C850,530.613,850,559.01,850,573.208L850,587.406Z" fill="#ff9da7" opacity="0.6"></path><path d="M801,587.406L809.167,573.208C817.333,559.01,833.667,530.613,841.833,502.217C850,473.821,850,445.425,850,417.029C850,388.633,850,360.236,850,331.84C850,303.444,850,275.048,850,246.652C850,218.255,850,189.859,850,164.49C850,139.12,850,116.777,850,105.606L850,94.434L850,94.434L850,105.606C850,116.777,850,139.12,850,164.49C850,189.859,850,218.255,850,246.652C850,275.048,850,303.444,850,331.84C850,360.236,850,388.633,850,417.029C850,445.425,850,473.821,850,502.217C850,530.613,850,559.01,850,573.208L850,587.406Z" fill="#ff9da7" opacity="0.6"></path><circle cx="855.3326880862085" cy="628.3401015112597" r="3" fill="#ff9da7" opacity="0.5"></circle><circle cx="847.6059367462834" cy="628.3124152393152" r="3" fill="#ff9da7" opacity="0.5"></circle><circle cx="854.5774648619056" cy="628.3078718510985" r="3" fill="#ff9da7" opacity="0.5"></circle><circle cx="850.489264383963" cy="628.2260908632007" r="3" fill="#ff9da7" opacity="0.5"></circle><circle cx="858.9883313862841" cy="628.2195597426394" r="3" fill="#ff9da7" opacity="0.5"></circle><circle cx="842.0493400338238" cy="628.152686747327" r="3" fill="#ff9da7" opacity="0.5"></circle><circle cx="850.3656495189161" cy="628.1092405975063" r="3" fill="#ff9da7" opacity="0.5"></circle><circle cx="846.9901758945696" cy="628.0087181332151" r="3" fill="#ff9da7" opacity="0.5"></circle><circle cx="856.5509070346459" cy="627.935597979105" r="3" fill="#ff9da7" opacity="0.5"></circle><circle cx="840.9039752616314" cy="627.9137329233129" r="3" fill="#ff9da7" opacity="0.5"></circle><circle cx="843.8660043506508" cy="627.7923392694019" r="3" fill="#ff9da7" opacity="0.5"></circle><circle cx="854.5756855995912" cy="627.7669246915656" r="3" fill="#ff9da7" opacity="0.5"></circle><circle cx="841.6561256823053" cy="627.667822036092" r="3" fill="#ff9da7" opacity="0.5"></circle><circle cx="854.4272463449986" cy="627.2820599803306" r="3" fill="#ff9da7" opacity="0.5"></circle><circle cx="843.7100955892208" cy="626.785978779436" r="3" fill="#ff9da7" opacity="0.5"></circle><circle cx="841.4178377074315" cy="626.7746203088947" r="3" fill="#ff9da7" opacity="0.5"></circle><circle cx="851.6314642487876" cy="621.8931756128567" r="3" fill="#ff9da7" opacity="0.5"></circle><line x1="825.5" x2="874.5" y1="627.935597979105" y2="627.935597979105" stroke="#222" stroke-width="2"></line><text x="850" y="650" text-anchor="middle" font-size="10" fill="#555" transform="rotate(-35, 850, 650)">synthesizer</text><path d="M1039,587.406L1030.833,573.208C1022.667,559.01,1006.333,530.613,998.167,502.217C990,473.821,990,445.425,990,417.029C990,388.633,990,360.236,990,331.84C990,303.444,990,275.048,990,246.652C990,218.255,990,189.859,990,164.49C990,139.12,990,116.777,990,105.606L990,94.434L990,94.434L990,105.606C990,116.777,990,139.12,990,164.49C990,189.859,990,218.255,990,246.652C990,275.048,990,303.444,990,331.84C990,360.236,990,388.633,990,417.029C990,445.425,990,473.821,990,502.217C990,530.613,990,559.01,990,573.208L990,587.406Z" fill="#bab0ac" opacity="0.6"></path><path d="M941,587.406L949.167,573.208C957.333,559.01,973.667,530.613,981.833,502.217C990,473.821,990,445.425,990,417.029C990,388.633,990,360.236,990,331.84C990,303.444,990,275.048,990,246.652C990,218.255,990,189.859,990,164.49C990,139.12,990,116.777,990,105.606L990,94.434L990,94.434L990,105.606C990,116.777,990,139.12,990,164.49C990,189.859,990,218.255,990,246.652C990,275.048,990,303.444,990,331.84C990,360.236,990,388.633,990,417.029C990,445.425,990,473.821,990,502.217C990,530.613,990,559.01,990,573.208L990,587.406Z" fill="#bab0ac" opacity="0.6"></path><circle cx="991.1800529086216" cy="622.3101734626069" r="3" fill="#bab0ac" opacity="0.5"></circle><circle cx="987.2437342454874" cy="621.8275804454802" r="3" fill="#bab0ac" opacity="0.5"></circle><circle cx="995.4888944943455" cy="620.568919928614" r="3" fill="#bab0ac" opacity="0.5"></circle><circle cx="992.2658462692311" cy="619.7203001982915" r="3" fill="#bab0ac" opacity="0.5"></circle><circle cx="983.2602954903937" cy="618.0009117200908" r="3" fill="#bab0ac" opacity="0.5"></circle><circle cx="996.0010075666664" cy="617.636020853949" r="3" fill="#bab0ac" opacity="0.5"></circle><circle cx="998.5534294692565" cy="613.0125554200821" r="3" fill="#bab0ac" opacity="0.5"></circle><circle cx="985.117309701226" cy="567.6708188468465" r="3" fill="#bab0ac" opacity="0.5"></circle><line x1="965.5" x2="1014.5" y1="618.8606059591912" y2="618.8606059591912" stroke="#222" stroke-width="2"></line><text x="990" y="650" text-anchor="middle" font-size="10" fill="#555" transform="rotate(-35, 990, 650)">merger</text><path d="M1179,587.406L1170.833,573.208C1162.667,559.01,1146.333,530.613,1138.167,502.217C1130,473.821,1130,445.425,1130,417.029C1130,388.633,1130,360.236,1130,331.84C1130,303.444,1130,275.048,1130,246.652C1130,218.255,1130,189.859,1130,164.49C1130,139.12,1130,116.777,1130,105.606L1130,94.434L1130,94.434L1130,105.606C1130,116.777,1130,139.12,1130,164.49C1130,189.859,1130,218.255,1130,246.652C1130,275.048,1130,303.444,1130,331.84C1130,360.236,1130,388.633,1130,417.029C1130,445.425,1130,473.821,1130,502.217C1130,530.613,1130,559.01,1130,573.208L1130,587.406Z" fill="#86bcb6" opacity="0.6"></path><path d="M1081,587.406L1089.167,573.208C1097.333,559.01,1113.667,530.613,1121.833,502.217C1130,473.821,1130,445.425,1130,417.029C1130,388.633,1130,360.236,1130,331.84C1130,303.444,1130,275.048,1130,246.652C1130,218.255,1130,189.859,1130,164.49C1130,139.12,1130,116.777,1130,105.606L1130,94.434L1130,94.434L1130,105.606C1130,116.777,1130,139.12,1130,164.49C1130,189.859,1130,218.255,1130,246.652C1130,275.048,1130,303.444,1130,331.84C1130,360.236,1130,388.633,1130,417.029C1130,445.425,1130,473.821,1130,502.217C1130,530.613,1130,559.01,1130,573.208L1130,587.406Z" fill="#86bcb6" opacity="0.6"></path><circle cx="1123.94035809026" cy="608.7650553611347" r="3" fill="#86bcb6" opacity="0.5"></circle><circle cx="1126.8464398530466" cy="577.3519272510244" r="3" fill="#86bcb6" opacity="0.5"></circle><circle cx="1129.6057085281552" cy="548.0749015071018" r="3" fill="#86bcb6" opacity="0.5"></circle><line x1="1105.5" x2="1154.5" y1="577.3519272510244" y2="577.3519272510244" stroke="#222" stroke-width="2"></line><text x="1130" y="650" text-anchor="middle" font-size="10" fill="#555" transform="rotate(-35, 1130, 650)">integration_tester</text><path d="M1319,587.406L1310.833,573.208C1302.667,559.01,1286.333,530.613,1278.167,502.217C1270,473.821,1270,445.425,1270,417.029C1270,388.633,1270,360.236,1270,331.84C1270,303.444,1270,275.048,1270,246.652C1270,218.255,1270,189.859,1270,164.49C1270,139.12,1270,116.777,1270,105.606L1270,94.434L1270,94.434L1270,105.606C1270,116.777,1270,139.12,1270,164.49C1270,189.859,1270,218.255,1270,246.652C1270,275.048,1270,303.444,1270,331.84C1270,360.236,1270,388.633,1270,417.029C1270,445.425,1270,473.821,1270,502.217C1270,530.613,1270,559.01,1270,573.208L1270,587.406Z" fill="#d4a6c8" opacity="0.6"></path><path d="M1221,587.406L1229.167,573.208C1237.333,559.01,1253.667,530.613,1261.833,502.217C1270,473.821,1270,445.425,1270,417.029C1270,388.633,1270,360.236,1270,331.84C1270,303.444,1270,275.048,1270,246.652C1270,218.255,1270,189.859,1270,164.49C1270,139.12,1270,116.777,1270,105.606L1270,94.434L1270,94.434L1270,105.606C1270,116.777,1270,139.12,1270,164.49C1270,189.859,1270,218.255,1270,246.652C1270,275.048,1270,303.444,1270,331.84C1270,360.236,1270,388.633,1270,417.029C1270,445.425,1270,473.821,1270,502.217C1270,530.613,1270,559.01,1270,573.208L1270,587.406Z" fill="#d4a6c8" opacity="0.6"></path><circle cx="1264.9453237262253" cy="627.200704935078" r="3" fill="#d4a6c8" opacity="0.5"></circle><circle cx="1262.4768870518162" cy="626.5657664318151" r="3" fill="#d4a6c8" opacity="0.5"></circle><circle cx="1263.0141882832552" cy="626.3306460916086" r="3" fill="#d4a6c8" opacity="0.5"></circle><circle cx="1264.0198047945676" cy="626.2515627404642" r="3" fill="#d4a6c8" opacity="0.5"></circle><circle cx="1264.3740117463904" cy="625.7799022512337" r="3" fill="#d4a6c8" opacity="0.5"></circle><circle cx="1268.4007050402279" cy="625.4925329465368" r="3" fill="#d4a6c8" opacity="0.5"></circle><circle cx="1261.3924859859453" cy="625.4202646777173" r="3" fill="#d4a6c8" opacity="0.5"></circle><circle cx="1261.1947667117533" cy="624.8025058611482" r="3" fill="#d4a6c8" opacity="0.5"></circle><line x1="1245.5" x2="1294.5" y1="626.015732495849" y2="626.015732495849" stroke="#222" stroke-width="2"></line><text x="1270" y="650" text-anchor="middle" font-size="10" fill="#555" transform="rotate(-35, 1270, 650)">workspace_cleanup</text><g transform="translate(80,0)" fill="none" font-size="10" font-family="sans-serif" text-anchor="end"><path class="domain" stroke="#888" d="M-6,630.5H0.5V70.5H-6"></path><g class="tick" opacity="1" transform="translate(0,630.5)"><line stroke="#888" x2="-6"></line><text fill="#888" x="-9" dy="0.32em" font-size="11">0</text></g><g class="tick" opacity="1" transform="translate(0,545.3114709396827)"><line stroke="#888" x2="-6"></line><text fill="#888" x="-9" dy="0.32em" font-size="11">10</text></g><g class="tick" opacity="1" transform="translate(0,460.12294187936544)"><line stroke="#888" x2="-6"></line><text fill="#888" x="-9" dy="0.32em" font-size="11">20</text></g><g class="tick" opacity="1" transform="translate(0,374.9344128190482)"><line stroke="#888" x2="-6"></line><text fill="#888" x="-9" dy="0.32em" font-size="11">30</text></g><g class="tick" opacity="1" transform="translate(0,289.7458837587309)"><line stroke="#888" x2="-6"></line><text fill="#888" x="-9" dy="0.32em" font-size="11">40</text></g><g class="tick" opacity="1" transform="translate(0,204.55735469841366)"><line stroke="#888" x2="-6"></line><text fill="#888" x="-9" dy="0.32em" font-size="11">50</text></g><g class="tick" opacity="1" transform="translate(0,119.36882563809635)"><line stroke="#888" x2="-6"></line><text fill="#888" x="-9" dy="0.32em" font-size="11">60</text></g></g><text transform="rotate(-90)" x="-350" y="35" text-anchor="middle" font-size="12" fill="#555">Duration (minutes)</text></svg>