<svg xmlns="http://www.w3.org/2000/svg" viewBox="0 0 1200 865" width="1200" height="865" style="font-family: &quot;Inter&quot;, -apple-system, BlinkMacSystemFont, &quot;Segoe UI&quot;, sans-serif;"><rect width="1200" height="865" fill="#fff"></rect><text x="600" y="35" text-anchor="middle" font-size="18" font-weight="700" fill="#222">When does each stage run?</text><line x1="100" x2="100" y1="80" y2="805" stroke="#f0f0f0" stroke-width="1"></line><line x1="272.1046978994017" x2="272.1046978994017" y1="80" y2="805" stroke="#f0f0f0" stroke-width="1"></line><line x1="444.20939579880337" x2="444.20939579880337" y1="80" y2="805" stroke="#f0f0f0" stroke-width="1"></line><line x1="616.3140936982049" x2="616.3140936982049" y1="80" y2="805" stroke="#f0f0f0" stroke-width="1"></line><line x1="788.4187915976067" x2="788.4187915976067" y1="80" y2="805" stroke="#f0f0f0" stroke-width="1"></line><line x1="960.5234894970083" x2="960.5234894970083" y1="80" y2="805" stroke="#f0f0f0" stroke-width="1"></line><line x1="1132.6281873964099" x2="1132.6281873964099" y1="80" y2="805" stroke="#f0f0f0" stroke-width="1"></line><text x="92" y="117.5" text-anchor="end" font-size="11" fill="#555">product_manager</text><text x="92" y="172.5" text-anchor="end" font-size="11" fill="#555">architect</text><text x="92" y="227.5" text-anchor="end" font-size="11" fill="#555">sprint_planner</text><text x="92" y="282.5" text-anchor="end" font-size="11" fill="#555">tech_lead</text><text x="92" y="337.5" text-anchor="end" font-size="11" fill="#555">issue_writer</text><text x="92" y="392.5" text-anchor="end" font-size="11" fill="#555">workspace_setup</text><text x="92" y="447.5" text-anchor="end" font-size="11" fill="#555">coder</text><text x="92" y="502.5" text-anchor="end" font-size="11" fill="#555">reviewer</text><text x="92" y="557.5" text-anchor="end" font-size="11" fill="#555">qa</text><text x="92" y="612.5" text-anchor="end" font-size="11" fill="#555">synthesizer</text><text x="92" y="667.5" text-anchor="end" font-size="11" fill="#555">merger</text><text x="92" y="722.5" text-anchor="end" font-size="11" fill="#555">integration_tester</text><text x="92" y="777.5" text-anchor="end" font-size="11" fill="#555">workspace_cleanup</text><rect x="100" y="98.25" width="9.006296209308331" height="38.5" fill="#4e79a7" opacity="0.85" rx="3"></rect><rect x="109.17724251585045" y="153.25" width="19.834951696440783" height="38.5" fill="#59a14f" opacity="0.85" rx="3"></rect><rect x="129.15782100753995" y="263.25" width="9.663334577655576" height="38.5" fill="#76b7b2" opacity="0.85" rx="3"></rect><rect x="138.94643534612848" y="208.25" width="11.126109773335287" height="38.5" fill="#9c755f" opacity="0.85" rx="3"></rect><rect x="150.2144421833331" y="318.25" width="2.287099330385132" height="38.5" fill="#edc948" opacity="0.85" rx="3"></rect><rect x="150.21450533305472" y="318.25" width="2.5698099808012387" height="38.5" fill="#edc948" opacity="0.85" rx="3"></rect><rect x="150.21454349370524" y="318.25" width="2.578013638067773" height="38.5" fill="#edc948" opacity="0.85" rx="3"></rect><rect x="150.21505641935198" y="318.25" width="2.3361491692865" height="38.5" fill="#edc948" opacity="0.85" rx="3"></rect><rect x="150.2154594860938" y="318.25" width="2.8810900110686077" height="38.5" fill="#edc948" opacity="0.85" rx="3"></rect><rect x="150.21586612270295" y="318.25" width="3.020552184599751" height="38.5" fill="#edc948" opacity="0.85" rx="3"></rect><rect x="150.21609122950795" y="318.25" width="2.6809322474116186" height="38.5" fill="#edc948" opacity="0.85" rx="3"></rect><rect x="150.216343021413" y="318.25" width="2.6698028102807996" height="38.5" fill="#edc948" opacity="0.85" rx="3"></rect><rect x="150.21666652525016" y="318.25" width="3.268727158970705" height="38.5" fill="#edc948" opacity="0.85" rx="3"></rect><rect x="150.21710958544793" y="318.25" width="2.759239884955832" height="38.5" fill="#edc948" opacity="0.85" rx="3"></rect><rect x="150.21717893114615" y="318.25" width="2.612434577647633" height="38.5" fill="#edc948" opacity="0.85" rx="3"></rect><rect x="150.21769444186924" y="318.25" width="2.904897827611393" height="38.5" fill="#edc948" opacity="0.85" rx="3"></rect><rect x="150.21774596558623" y="318.25" width="2.8931373399215943" height="38.5" fill="#edc948" opacity="0.85" rx="3"></rect><rect x="150.21779134803728" y="318.25" width="2.842309085808637" height="38.5" fill="#edc948" opacity="0.85" rx="3"></rect><rect x="150.21929621807703" y="318.25" width="3.0055217076498764" height="38.5" fill="#edc948" opacity="0.85" rx="3"></rect><rect x="153.63447685070835" y="373.25" width="2" height="38.5" fill="#a0cbe8" opacity="0.85" rx="3"></rect><rect x="155.02880871224755" y="428.25" width="8.071423490318779" height="38.5" fill="#f28e2b" opacity="0.85" rx="3"></rect><rect x="163.2599571165727" y="538.25" width="5.957346749555143" height="38.5" fill="#b07aa1" opacity="0.85" rx="3"></rect><rect x="163.2603020122584" y="483.25" width="5.7074507282052025" height="38.5" fill="#e15759" opacity="0.85" rx="3"></rect><rect x="169.40753267671334" y="593.25" width="2" height="38.5" fill="#ff9da7" opacity="0.85" rx="3"></rect><rect x="170.2702685128262" y="648.25" width="3.8106848526559247" height="38.5" fill="#bab0ac" opacity="0.85" rx="3"></rect><rect x="174.24616423655027" y="758.25" width="2" height="38.5" fill="#d4a6c8" opacity="0.85" rx="3"></rect><rect x="175.87455682785986" y="373.25" width="2" height="38.5" fill="#a0cbe8" opacity="0.85" rx="3"></rect><rect x="177.42659183135174" y="428.25" width="11.747579837450019" height="38.5" fill="#f28e2b" opacity="0.85" rx="3"></rect><rect x="189.2918291390091" y="483.25" width="4.752900705422519" height="38.5" fill="#e15759" opacity="0.85" rx="3"></rect><rect x="189.29214605021775" y="538.25" width="7.7776407710045135" height="38.5" fill="#b07aa1" opacity="0.85" rx="3"></rect><rect x="197.25737875930753" y="593.25" width="2" height="38.5" fill="#ff9da7" opacity="0.85" rx="3"></rect><rect x="198.15794108719467" y="648.25" width="4.1535747791041615" height="38.5" fill="#bab0ac" opacity="0.85" rx="3"></rect><rect x="202.55938868338077" y="758.25" width="2" height="38.5" fill="#d4a6c8" opacity="0.85" rx="3"></rect><rect x="203.80507738424632" y="373.25" width="2" height="38.5" fill="#a0cbe8" opacity="0.85" rx="3"></rect><rect x="205.63429612976321" y="428.25" width="9.273460068680805" height="38.5" fill="#f28e2b" opacity="0.85" rx="3"></rect><rect x="205.63462856510745" y="428.25" width="11.050498442724802" height="38.5" fill="#f28e2b" opacity="0.85" rx="3"></rect><rect x="215.08247011383392" y="538.25" width="8.745270750827558" height="38.5" fill="#b07aa1" opacity="0.85" rx="3"></rect><rect x="215.08281431195934" y="483.25" width="4.580279693429418" height="38.5" fill="#e15759" opacity="0.85" rx="3"></rect><rect x="216.81928852038413" y="538.25" width="6.964790282825618" height="38.5" fill="#b07aa1" opacity="0.85" rx="3"></rect><rect x="216.81961198318834" y="483.25" width="5.301742587023682" height="38.5" fill="#e15759" opacity="0.85" rx="3"></rect><rect x="223.9224341791302" y="593.25" width="2" height="38.5" fill="#ff9da7" opacity="0.85" rx="3"></rect><rect x="223.98587753261276" y="593.25" width="2" height="38.5" fill="#ff9da7" opacity="0.85" rx="3"></rect><rect x="224.8964732803081" y="648.25" width="25.184482021247845" height="38.5" fill="#bab0ac" opacity="0.85" rx="3"></rect><rect x="250.2118235446078" y="703.25" width="8.580107609076776" height="38.5" fill="#86bcb6" opacity="0.85" rx="3"></rect><rect x="258.94071668712223" y="758.25" width="2" height="38.5" fill="#d4a6c8" opacity="0.85" rx="3"></rect><rect x="260.90510187919585" y="373.25" width="2.0706489886603094" height="38.5" fill="#a0cbe8" opacity="0.85" rx="3"></rect><rect x="263.1005423830986" y="428.25" width="13.091832264509549" height="38.5" fill="#f28e2b" opacity="0.85" rx="3"></rect><rect x="263.100820217254" y="428.25" width="17.135260036958073" height="38.5" fill="#f28e2b" opacity="0.85" rx="3"></rect><rect x="263.1010581810524" y="428.25" width="8.641090040365782" height="38.5" fill="#f28e2b" opacity="0.85" rx="3"></rect><rect x="263.10139337928246" y="428.25" width="14.583979995297398" height="38.5" fill="#f28e2b" opacity="0.85" rx="3"></rect><rect x="271.8507499996583" y="538.25" width="11.0975977617166" height="38.5" fill="#b07aa1" opacity="0.85" rx="3"></rect><rect x="271.851061398773" y="483.25" width="5.132621037221213" height="38.5" fill="#e15759" opacity="0.85" rx="3"></rect><rect x="276.3565827726582" y="483.25" width="5.291301568684446" height="38.5" fill="#e15759" opacity="0.85" rx="3"></rect><rect x="276.3568959498677" y="538.25" width="10.086081083929173" height="38.5" fill="#b07aa1" opacity="0.85" rx="3"></rect><rect x="277.8326505348574" y="538.25" width="9.472298362987317" height="38.5" fill="#b07aa1" opacity="0.85" rx="3"></rect><rect x="277.83298894733576" y="483.25" width="6.776794584486822" height="38.5" fill="#e15759" opacity="0.85" rx="3"></rect><rect x="280.3452699464308" y="538.25" width="10.538028020613012" height="38.5" fill="#b07aa1" opacity="0.85" rx="3"></rect><rect x="280.34562277515494" y="483.25" width="6.586217315679562" height="38.5" fill="#e15759" opacity="0.85" rx="3"></rect><rect x="283.1255967436524" y="593.25" width="2" height="38.5" fill="#ff9da7" opacity="0.85" rx="3"></rect><rect x="286.5694405931473" y="593.25" width="2" height="38.5" fill="#ff9da7" opacity="0.85" rx="3"></rect><rect x="287.4342168477839" y="593.25" width="2" height="38.5" fill="#ff9da7" opacity="0.85" rx="3"></rect><rect x="291.0000127807714" y="593.25" width="2" height="38.5" fill="#ff9da7" opacity="0.85" rx="3"></rect><rect x="291.9740473546463" y="648.25" width="6.863879561623946" height="38.5" fill="#bab0ac" opacity="0.85" rx="3"></rect><rect x="298.9874961581878" y="703.25" width="21.272771710925042" height="38.5" fill="#86bcb6" opacity="0.85" rx="3"></rect><rect x="320.38543709316696" y="758.25" width="2.100078892001136" height="38.5" fill="#d4a6c8" opacity="0.85" rx="3"></rect><rect x="322.61071033528873" y="373.25" width="2" height="38.5" fill="#a0cbe8" opacity="0.85" rx="3"></rect><rect x="324.05091882144114" y="428.25" width="14.127271495305024" height="38.5" fill="#f28e2b" opacity="0.85" rx="3"></rect><rect x="338.31541713992897" y="538.25" width="11.394076787964593" height="38.5" fill="#b07aa1" opacity="0.85" rx="3"></rect><rect x="338.3157473458159" y="483.25" width="4.395955561979122" height="38.5" fill="#e15759" opacity="0.85" rx="3"></rect><rect x="349.89824539093996" y="593.25" width="2" height="38.5" fill="#ff9da7" opacity="0.85" rx="3"></rect><rect x="350.7061219409302" y="648.25" width="4.848304076291413" height="38.5" fill="#bab0ac" opacity="0.85" rx="3"></rect><rect x="355.73296243086355" y="758.25" width="2" height="38.5" fill="#d4a6c8" opacity="0.85" rx="3"></rect><rect x="357.261891516095" y="373.25" width="2.0746073967120537" height="38.5" fill="#a0cbe8" opacity="0.85" rx="3"></rect><rect x="359.459433823826" y="428.25" width="9.425715358089121" height="38.5" fill="#f28e2b" opacity="0.85" rx="3"></rect><rect x="359.4598079760103" y="428.25" width="9.537411307025877" height="38.5" fill="#f28e2b" opacity="0.85" rx="3"></rect><rect x="369.164419753365" y="538.25" width="13.13227686851593" height="38.5" fill="#b07aa1" opacity="0.85" rx="3"></rect><rect x="369.1648708286671" y="483.25" width="5.922524232346802" height="38.5" fill="#e15759" opacity="0.85" rx="3"></rect><rect x="369.1651472403466" y="538.25" width="9.845765557429047" height="38.5" fill="#b07aa1" opacity="0.85" rx="3"></rect><rect x="369.1655190399748" y="483.25" width="8.23320190634422" height="38.5" fill="#e15759" opacity="0.85" rx="3"></rect><rect x="379.12661355537944" y="593.25" width="2" height="38.5" fill="#ff9da7" opacity="0.85" rx="3"></rect><rect x="380.35514530984494" y="428.25" width="8.692664081502926" height="38.5" fill="#f28e2b" opacity="0.85" rx="3"></rect><rect x="382.4246008060242" y="593.25" width="2" height="38.5" fill="#ff9da7" opacity="0.85" rx="3"></rect><rect x="389.18674692678485" y="538.25" width="11.501814328849719" height="38.5" fill="#b07aa1" opacity="0.85" rx="3"></rect><rect x="389.1871619341173" y="483.25" width="5.512398737252624" height="38.5" fill="#e15759" opacity="0.85" rx="3"></rect><rect x="400.87857953038235" y="593.25" width="2" height="38.5" fill="#ff9da7" opacity="0.85" rx="3"></rect><rect x="401.6865699057968" y="648.25" width="3.1071208476431025" height="38.5" fill="#bab0ac" opacity="0.85" rx="3"></rect><rect x="404.9054904223135" y="703.25" width="33.10233075280769" height="38.5" fill="#86bcb6" opacity="0.85" rx="3"></rect><rect x="438.1467336494879" y="758.25" width="2" height="38.5" fill="#d4a6c8" opacity="0.85" rx="3"></rect><rect x="439.9508649678699" y="373.25" width="2.0101828714650196" height="38.5" fill="#a0cbe8" opacity="0.85" rx="3"></rect><rect x="442.0857077538948" y="428.25" width="19.811832298689637" height="38.5" fill="#f28e2b" opacity="0.85" rx="3"></rect><rect x="462.0922693948267" y="538.25" width="15.237691006151977" height="38.5" fill="#b07aa1" opacity="0.85" rx="3"></rect><rect x="462.0926203633901" y="483.25" width="7.261728254934724" height="38.5" fill="#e15759" opacity="0.85" rx="3"></rect><rect x="477.49250674431795" y="593.25" width="2" height="38.5" fill="#ff9da7" opacity="0.85" rx="3"></rect><rect x="478.50842718677796" y="648.25" width="4.99574043415862" height="38.5" fill="#bab0ac" opacity="0.85" rx="3"></rect><rect x="483.6871887551973" y="758.25" width="2" height="38.5" fill="#d4a6c8" opacity="0.85" rx="3"></rect><rect x="485.30771487718584" y="373.25" width="2.172305496886338" height="38.5" fill="#a0cbe8" opacity="0.85" rx="3"></rect><rect x="487.6480869739771" y="428.25" width="97.1089857933174" height="38.5" fill="#f28e2b" opacity="0.85" rx="3"></rect><rect x="487.6484330869739" y="428.25" width="27.277619357100434" height="38.5" fill="#f28e2b" opacity="0.85" rx="3"></rect><rect x="515.102021067428" y="538.25" width="67.58912906375087" height="38.5" fill="#b07aa1" opacity="0.85" rx="3"></rect><rect x="515.1023424375513" y="483.25" width="5.376493394144745" height="38.5" fill="#e15759" opacity="0.85" rx="3"></rect><rect x="582.877048323755" y="593.25" width="2" height="38.5" fill="#ff9da7" opacity="0.85" rx="3"></rect><rect x="584.2889775521052" y="428.25" width="89.57407001458364" height="38.5" fill="#f28e2b" opacity="0.85" rx="3"></rect><rect x="584.8795999656561" y="538.25" width="205.70125597634387" height="38.5" fill="#b07aa1" opacity="0.85" rx="3"></rect><rect x="584.8798928315516" y="483.25" width="4.915023330843837" height="38.5" fill="#e15759" opacity="0.85" rx="3"></rect><rect x="674.0387172359502" y="483.25" width="8.479885306666688" height="38.5" fill="#e15759" opacity="0.85" rx="3"></rect><rect x="674.0389958770871" y="538.25" width="166.6192622314867" height="38.5" fill="#b07aa1" opacity="0.85" rx="3"></rect><rect x="739.7750729056278" y="593.25" width="2" height="38.5" fill="#ff9da7" opacity="0.85" rx="3"></rect><rect x="740.8654179963751" y="428.25" width="175.28823323291226" height="38.5" fill="#f28e2b" opacity="0.85" rx="3"></rect><rect x="828.9344848746229" y="593.25" width="2" height="38.5" fill="#ff9da7" opacity="0.85" rx="3"></rect><rect x="925.2153888574267" y="648.25" width="3.3021154703631055" height="38.5" fill="#bab0ac" opacity="0.85" rx="3"></rect><rect x="928.6620972176867" y="758.25" width="2" height="38.5" fill="#d4a6c8" opacity="0.85" rx="3"></rect><rect x="941.7411361456163" y="318.25" width="6.3231839690567995" height="38.5" fill="#edc948" opacity="0.85" rx="3"></rect><rect x="950.1931254045537" y="428.25" width="97.50121239983014" height="38.5" fill="#f28e2b" opacity="0.85" rx="3"></rect><rect x="950.1934666893392" y="428.25" width="131.49011181975038" height="38.5" fill="#f28e2b" opacity="0.85" rx="3"></rect><rect x="1047.8825836275955" y="538.25" width="72.0238655509902" height="38.5" fill="#b07aa1" opacity="0.85" rx="3"></rect><rect x="1047.882972059249" y="483.25" width="9.197734001605113" height="38.5" fill="#e15759" opacity="0.85" rx="3"></rect><rect x="1081.8042723272251" y="483.25" width="11.668870622277154" height="38.5" fill="#e15759" opacity="0.85" rx="3"></rect><rect x="1120.07509474805" y="593.25" width="3.27561134688699" height="38.5" fill="#ff9da7" opacity="0.85" rx="3"></rect><rect x="1123.4779748762924" y="428.25" width="17.557375492672463" height="38.5" fill="#f28e2b" opacity="0.85" rx="3"></rect><rect x="1141.2250125046685" y="483.25" width="8.774987495331516" height="38.5" fill="#e15759" opacity="0.85" rx="3"></rect><g transform="translate(0,805)" fill="none" font-size="10" font-family="sans-serif" text-anchor="middle"><path class="domain" stroke="#888" d="M100.5,6V0.5H1150.5V6"></path><g class="tick" opacity="1" transform="translate(100.5,0)"><line stroke="#888" y2="6"></line><text fill="#888" y="9" dy="0.71em" font-size="11">0</text></g><g class="tick" opacity="1" transform="translate(272.6046978994017,0)"><line stroke="#888" y2="6"></line><text fill="#888" y="9" dy="0.71em" font-size="11">50</text></g><g class="tick" opacity="1" transform="translate(444.70939579880337,0)"><line stroke="#888" y2="6"></line><text fill="#888" y="9" dy="0.71em" font-size="11">100</text></g><g class="tick" opacity="1" transform="translate(616.8140936982049,0)"><line stroke="#888" y2="6"></line><text fill="#888" y="9" dy="0.71em" font-size="11">150</text></g><g class="tick" opacity="1" transform="translate(788.9187915976067,0)"><line stroke="#888" y2="6"></line><text fill="#888" y="9" dy="0.71em" font-size="11">200</text></g><g class="tick" opacity="1" transform="translate(961.0234894970083,0)"><line stroke="#888" y2="6"></line><text fill="#888" y="9" dy="0.71em" font-size="11">250</text></g><g class="tick" opacity="1" transform="translate(1133.1281873964099,0)"><line stroke="#888" y2="6"></line><text fill="#888" y="9" dy="0.71em" font-size="11">300</text></g></g><text x="625" y="850" text-anchor="middle" font-size="12" fill="#555">Elapsed time (minutes)</text></svg>