<svg xmlns="http://www.w3.org/2000/svg" viewBox="0 0 1200 700" width="1200" height="700" style="font-family: &quot;Inter&quot;, -apple-system, BlinkMacSystemFont, &quot;Segoe UI&quot;, sans-serif;"><rect width="1200" height="700" fill="#fff"></rect><text x="600" y="35" text-anchor="middle" font-size="18" font-weight="700" fill="#222">Are we using concurrency well?</text><text x="600" y="55" text-anchor="middle" font-size="13" fill="#666">&gt;1 = parallel</text><line x1="100" x2="100" y1="70" y2="630" stroke="#f0f0f0" stroke-width="1"></line><line x1="221.2142000424949" x2="221.2142000424949" y1="70" y2="630" stroke="#f0f0f0" stroke-width="1"></line><line x1="342.42840008498985" x2="342.42840008498985" y1="70" y2="630" stroke="#f0f0f0" stroke-width="1"></line><line x1="463.6426001274847" x2="463.6426001274847" y1="70" y2="630" stroke="#f0f0f0" stroke-width="1"></line><line x1="584.8568001699797" x2="584.8568001699797" y1="70" y2="630" stroke="#f0f0f0" stroke-width="1"></line><line x1="706.0710002124745" x2="706.0710002124745" y1="70" y2="630" stroke="#f0f0f0" stroke-width="1"></line><line x1="827.2852002549694" x2="827.2852002549694" y1="70" y2="630" stroke="#f0f0f0" stroke-width="1"></line><line x1="948.4994002974643" x2="948.4994002974643" y1="70" y2="630" stroke="#f0f0f0" stroke-width="1"></line><line x1="1069.7136003399594" x2="1069.7136003399594" y1="70" y2="630" stroke="#f0f0f0" stroke-width="1"></line><rect x="100" y="76.46153846153847" width="10.396041275867134" height="30.153846153846153" fill="#4e79a7" opacity="0.85" rx="3"></rect><text x="92" y="95.53846153846155" text-anchor="end" font-size="11" fill="#555">product_manager</text><text x="116.39604127586713" y="95.53846153846155" font-size="11" fill="#444">0.01</text><rect x="100" y="119.53846153846155" width="22.895646750759653" height="30.153846153846153" fill="#59a14f" opacity="0.85" rx="3"></rect><text x="92" y="138.6153846153846" text-anchor="end" font-size="11" fill="#555">architect</text><text x="128.89564675075965" y="138.6153846153846" font-size="11" fill="#444">0.02</text><rect x="100" y="162.6153846153846" width="12.842959386998132" height="30.153846153846153" fill="#9c755f" opacity="0.85" rx="3"></rect><text x="92" y="181.6923076923077" text-anchor="end" font-size="11" fill="#555">sprint_planner</text><text x="118.84295938699813" y="181.6923076923077" font-size="11" fill="#444">0.01</text><rect x="100" y="205.69230769230768" width="11.154466030996446" height="30.153846153846153" fill="#76b7b2" opacity="0.85" rx="3"></rect><text x="92" y="224.76923076923077" text-anchor="end" font-size="11" fill="#555">tech_lead</text><text x="117.15446603099645" y="224.76923076923077" font-size="11" fill="#444">0.01</text><rect x="100" y="248.76923076923077" width="54.983046591166044" height="30.153846153846153" fill="#edc948" opacity="0.85" rx="3"></rect><text x="92" y="267.84615384615387" text-anchor="end" font-size="11" fill="#555">issue_writer</text><text x="160.98304659116604" y="267.84615384615387" font-size="11" fill="#444">0.05</text><rect x="100" y="291.84615384615387" width="16.213390257671023" height="30.153846153846153" fill="#a0cbe8" opacity="0.85" rx="3"></rect><text x="92" y="310.92307692307696" text-anchor="end" font-size="11" fill="#555">workspace_setup</text><text x="122.21339025767102" y="310.92307692307696" font-size="11" fill="#444">0.01</text><rect x="100" y="334.9230769230769" width="913.0434782608696" height="30.153846153846153" fill="#f28e2b" opacity="0.85" rx="3"></rect><text x="92" y="354" text-anchor="end" font-size="11" fill="#555">coder</text><text x="1019.0434782608696" y="354" font-size="11" fill="#444">0.75</text><rect x="100" y="378" width="142.98197232874293" height="30.153846153846153" fill="#e15759" opacity="0.85" rx="3"></rect><text x="92" y="397.0769230769231" text-anchor="end" font-size="11" fill="#555">reviewer</text><text x="248.98197232874293" y="397.0769230769231" font-size="11" fill="#444">0.12</text><rect x="100" y="421.0769230769231" width="743.0099193221897" height="30.153846153846153" fill="#b07aa1" opacity="0.85" rx="3"></rect><text x="92" y="440.1538461538462" text-anchor="end" font-size="11" fill="#555">qa</text><text x="849.0099193221897" y="440.1538461538462" font-size="11" fill="#444">0.61</text><rect x="100" y="464.1538461538462" width="19.82738056686358" height="30.153846153846153" fill="#ff9da7" opacity="0.85" rx="3"></rect><text x="92" y="483.2307692307693" text-anchor="end" font-size="11" fill="#555">synthesizer</text><text x="125.82738056686358" y="483.2307692307693" font-size="11" fill="#444">0.02</text><rect x="100" y="507.2307692307693" width="64.94819029594908" height="30.153846153846153" fill="#bab0ac" opacity="0.85" rx="3"></rect><text x="92" y="526.3076923076924" text-anchor="end" font-size="11" fill="#555">merger</text><text x="170.94819029594908" y="526.3076923076924" font-size="11" fill="#444">0.05</text><rect x="100" y="550.3076923076923" width="72.66971319146498" height="30.153846153846153" fill="#86bcb6" opacity="0.85" rx="3"></rect><text x="92" y="569.3846153846154" text-anchor="end" font-size="11" fill="#555">integration_tester</text><text x="178.66971319146498" y="569.3846153846154" font-size="11" fill="#444">0.06</text><rect x="100" y="593.3846153846154" width="14.997778345516238" height="30.153846153846153" fill="#d4a6c8" opacity="0.85" rx="3"></rect><text x="92" y="612.4615384615385" text-anchor="end" font-size="11" fill="#555">workspace_cleanup</text><text x="120.99777834551624" y="612.4615384615385" font-size="11" fill="#444">0.01</text><line x1="1312.142000424949" x2="1312.142000424949" y1="70" y2="630" stroke="#888" stroke-width="1" stroke-dasharray="5,4"></line><text x="1316.142000424949" y="65" font-size="10" fill="#888">1.0</text></svg>