<svg xmlns="http://www.w3.org/2000/svg" viewBox="0 0 1200 710" width="1200" height="710" style="font-family: &quot;Inter&quot;, -apple-system, BlinkMacSystemFont, &quot;Segoe UI&quot;, sans-serif;"><rect width="1200" height="710" fill="#fff"></rect><text x="600" y="35" text-anchor="middle" font-size="18" font-weight="700" fill="#222">Which issues cost the most?</text><line x1="100" x2="100" y1="80" y2="650" stroke="#f0f0f0" stroke-width="1"></line><line x1="209.19176921615752" x2="209.19176921615752" y1="80" y2="650" stroke="#f0f0f0" stroke-width="1"></line><line x1="318.38353843231505" x2="318.38353843231505" y1="80" y2="650" stroke="#f0f0f0" stroke-width="1"></line><line x1="427.5753076484725" x2="427.5753076484725" y1="80" y2="650" stroke="#f0f0f0" stroke-width="1"></line><line x1="536.7670768646301" x2="536.7670768646301" y1="80" y2="650" stroke="#f0f0f0" stroke-width="1"></line><line x1="645.9588460807877" x2="645.9588460807877" y1="80" y2="650" stroke="#f0f0f0" stroke-width="1"></line><line x1="755.150615296945" x2="755.150615296945" y1="80" y2="650" stroke="#f0f0f0" stroke-width="1"></line><line x1="864.3423845131026" x2="864.3423845131026" y1="80" y2="650" stroke="#f0f0f0" stroke-width="1"></line><line x1="973.5341537292602" x2="973.5341537292602" y1="80" y2="650" stroke="#f0f0f0" stroke-width="1"></line><line x1="1082.7259229454178" x2="1082.7259229454178" y1="80" y2="650" stroke="#f0f0f0" stroke-width="1"></line><text x="92" y="111.5" text-anchor="end" font-size="10" fill="#555">project-scaffold</text><rect x="100" y="95.25" width="69.15679811864953" height="24.5" fill="#f28e2b" opacity="0.85" rx="2"></rect><rect x="169.15679811864953" y="95.25" width="43.14213208232303" height="24.5" fill="#e15759" opacity="0.85" rx="2"></rect><rect x="212.29893020097256" y="95.25" width="38.046698171851006" height="24.5" fill="#b07aa1" opacity="0.85" rx="2"></rect><rect x="250.34562837282357" y="95.25" width="2.0610001035434493" height="24.5" fill="#ff9da7" opacity="0.85" rx="2"></rect><text x="92" y="146.5" text-anchor="end" font-size="10" fill="#555">validator-module</text><rect x="100" y="130.25" width="69.30177749022624" height="24.5" fill="#f28e2b" opacity="0.85" rx="2"></rect><rect x="169.30177749022624" y="130.25" width="37.213865250097086" height="24.5" fill="#e15759" opacity="0.85" rx="2"></rect><rect x="206.51564274032333" y="130.25" width="78.00362445231175" height="24.5" fill="#b07aa1" opacity="0.85" rx="2"></rect><rect x="284.5192671926351" y="130.25" width="1.7141415294514104" height="24.5" fill="#ff9da7" opacity="0.85" rx="2"></rect><text x="92" y="181.5" text-anchor="end" font-size="10" fill="#555">error-module</text><rect x="100" y="165.25" width="115.16745257416557" height="24.5" fill="#f28e2b" opacity="0.85" rx="2"></rect><rect x="215.16745257416557" y="165.25" width="27.38797091775814" height="24.5" fill="#e15759" opacity="0.85" rx="2"></rect><rect x="242.5554234919237" y="165.25" width="65.17367346324016" height="24.5" fill="#b07aa1" opacity="0.85" rx="2"></rect><rect x="307.72909695516387" y="165.25" width="1.7163253648357113" height="24.5" fill="#ff9da7" opacity="0.85" rx="2"></rect><text x="92" y="216.5" text-anchor="end" font-size="10" fill="#555">integration-tests…</text><rect x="100" y="200.25" width="145.472181329168" height="24.5" fill="#f28e2b" opacity="0.85" rx="2"></rect><rect x="245.472181329168" y="200.25" width="76.10729099633477" height="24.5" fill="#e15759" opacity="0.85" rx="2"></rect><text x="92" y="251.5" text-anchor="end" font-size="10" fill="#555">lexer-module</text><rect x="100" y="235.25" width="114.45857960841431" height="24.5" fill="#f28e2b" opacity="0.85" rx="2"></rect><rect x="214.4585796084143" y="235.25" width="45.488663202778184" height="24.5" fill="#e15759" opacity="0.85" rx="2"></rect><rect x="259.9472428111925" y="235.25" width="63.38931616659437" height="24.5" fill="#b07aa1" opacity="0.85" rx="2"></rect><rect x="323.33655897778686" y="235.25" width="1.8238847171020893" height="24.5" fill="#ff9da7" opacity="0.85" rx="2"></rect><text x="92" y="286.5" text-anchor="end" font-size="10" fill="#555">layout-module</text><rect x="100" y="270.25" width="126.59819293455902" height="24.5" fill="#f28e2b" opacity="0.85" rx="2"></rect><rect x="226.59819293455902" y="270.25" width="62.4259717826848" height="24.5" fill="#e15759" opacity="0.85" rx="2"></rect><rect x="289.0241647172438" y="270.25" width="55.069367417342335" height="24.5" fill="#b07aa1" opacity="0.85" rx="2"></rect><rect x="344.09353213458616" y="270.25" width="1.8260576333095173" height="24.5" fill="#ff9da7" opacity="0.85" rx="2"></rect><text x="92" y="321.5" text-anchor="end" font-size="10" fill="#555">types-module</text><rect x="100" y="305.25" width="127.91911306470922" height="24.5" fill="#f28e2b" opacity="0.85" rx="2"></rect><rect x="227.91911306470922" y="305.25" width="58.859249939181325" height="24.5" fill="#e15759" opacity="0.85" rx="2"></rect><rect x="286.77836300389055" y="305.25" width="90.52289756002108" height="24.5" fill="#b07aa1" opacity="0.85" rx="2"></rect><rect x="377.3012605639116" y="305.25" width="1.7137757370244913" height="24.5" fill="#ff9da7" opacity="0.85" rx="2"></rect><text x="92" y="356.5" text-anchor="end" font-size="10" fill="#555">smoke-test-core-c…</text><rect x="100" y="340.25" width="138.14309328966795" height="24.5" fill="#f28e2b" opacity="0.85" rx="2"></rect><rect x="238.14309328966795" y="340.25" width="68.60860084129979" height="24.5" fill="#e15759" opacity="0.85" rx="2"></rect><rect x="306.75169413096773" y="340.25" width="72.41491672440588" height="24.5" fill="#b07aa1" opacity="0.85" rx="2"></rect><rect x="379.1666108553736" y="340.25" width="1.5726781328432935" height="24.5" fill="#ff9da7" opacity="0.85" rx="2"></rect><text x="92" y="391.5" text-anchor="end" font-size="10" fill="#555">svg-renderer</text><rect x="100" y="375.25" width="182.13473733649266" height="24.5" fill="#f28e2b" opacity="0.85" rx="2"></rect><rect x="282.13473733649266" y="375.25" width="58.79280674761333" height="24.5" fill="#e15759" opacity="0.85" rx="2"></rect><rect x="340.927544084106" y="375.25" width="99.92654732080109" height="24.5" fill="#b07aa1" opacity="0.85" rx="2"></rect><rect x="440.8540914049071" y="375.25" width="1.6875860911781047" height="24.5" fill="#ff9da7" opacity="0.85" rx="2"></rect><text x="92" y="426.5" text-anchor="end" font-size="10" fill="#555">parser-module</text><rect x="100" y="410.25" width="177.88633127777274" height="24.5" fill="#f28e2b" opacity="0.85" rx="2"></rect><rect x="277.88633127777274" y="410.25" width="72.84745262021335" height="24.5" fill="#e15759" opacity="0.85" rx="2"></rect><rect x="350.7337838979861" y="410.25" width="110.98027580003361" height="24.5" fill="#b07aa1" opacity="0.85" rx="2"></rect><rect x="461.7140596980197" y="410.25" width="1.6625757164390507" height="24.5" fill="#ff9da7" opacity="0.85" rx="2"></rect><text x="92" y="461.5" text-anchor="end" font-size="10" fill="#555">ascii-renderer</text><rect x="100" y="445.25" width="216.58798897932462" height="24.5" fill="#f28e2b" opacity="0.85" rx="2"></rect><rect x="316.5879889793246" y="445.25" width="69.84582548034575" height="24.5" fill="#e15759" opacity="0.85" rx="2"></rect><rect x="386.4338144596704" y="445.25" width="128.01937840679187" height="24.5" fill="#b07aa1" opacity="0.85" rx="2"></rect><rect x="514.4531928664622" y="445.25" width="1.766711906740511" height="24.5" fill="#ff9da7" opacity="0.85" rx="2"></rect><text x="92" y="496.5" text-anchor="end" font-size="10" fill="#555">cli-module</text><rect x="100" y="480.25" width="175.41706860871858" height="24.5" fill="#f28e2b" opacity="0.85" rx="2"></rect><rect x="275.4170686087186" y="480.25" width="74.23689058554663" height="24.5" fill="#e15759" opacity="0.85" rx="2"></rect><rect x="349.6539591942652" y="480.25" width="208.94227210704003" height="24.5" fill="#b07aa1" opacity="0.85" rx="2"></rect><rect x="558.5962313013052" y="480.25" width="1.812785373761244" height="24.5" fill="#ff9da7" opacity="0.85" rx="2"></rect><text x="92" y="531.5" text-anchor="end" font-size="10" fill="#555">app-module</text><rect x="100" y="515.25" width="198.29588352286845" height="24.5" fill="#f28e2b" opacity="0.85" rx="2"></rect><rect x="298.29588352286845" y="515.25" width="135.72785324843352" height="24.5" fill="#e15759" opacity="0.85" rx="2"></rect><rect x="434.02373677130197" y="515.25" width="170.67961991362165" height="24.5" fill="#b07aa1" opacity="0.85" rx="2"></rect><rect x="604.7033566849236" y="515.25" width="3.511863898649267" height="24.5" fill="#ff9da7" opacity="0.85" rx="2"></rect><text x="92" y="566.5" text-anchor="end" font-size="10" fill="#555">final-acceptance-…</text><rect x="100" y="550.25" width="286.07844984675637" height="24.5" fill="#f28e2b" opacity="0.85" rx="2"></rect><rect x="386.07844984675637" y="550.25" width="125.81272194270264" height="24.5" fill="#e15759" opacity="0.85" rx="2"></rect><rect x="511.891171789459" y="550.25" width="141.52339748517727" height="24.5" fill="#b07aa1" opacity="0.85" rx="2"></rect><rect x="653.4145692746363" y="550.25" width="5.162865287551426" height="24.5" fill="#ff9da7" opacity="0.85" rx="2"></rect><text x="92" y="601.5" text-anchor="end" font-size="10" fill="#555">integration-tests</text><rect x="100" y="585.25" width="464.08781295049346" height="24.5" fill="#f28e2b" opacity="0.85" rx="2"></rect><rect x="564.0878129504935" y="585.25" width="120.1709197170153" height="24.5" fill="#e15759" opacity="0.85" rx="2"></rect><rect x="684.2587326675088" y="585.25" width="323.0330665387919" height="24.5" fill="#b07aa1" opacity="0.85" rx="2"></rect><rect x="1007.2917992063007" y="585.25" width="4.065193189152069" height="24.5" fill="#ff9da7" opacity="0.85" rx="2"></rect><text x="92" y="636.5" text-anchor="end" font-size="10" fill="#555">documentation-and…</text><rect x="100" y="620.25" width="621.6137555772601" height="24.5" fill="#f28e2b" opacity="0.85" rx="2"></rect><rect x="721.6137555772601" y="620.25" width="78.67021290543403" height="24.5" fill="#e15759" opacity="0.85" rx="2"></rect><rect x="800.2839684826941" y="620.25" width="252.4911162317511" height="24.5" fill="#b07aa1" opacity="0.85" rx="2"></rect><rect x="1052.7750847144453" y="620.25" width="1.7703698310092477" height="24.5" fill="#ff9da7" opacity="0.85" rx="2"></rect><g transform="translate(980, 60)"><rect x="0" y="0" width="12" height="12" fill="#f28e2b" rx="2"></rect><text x="16" y="10" font-size="10" fill="#555">coder</text><rect x="100" y="0" width="12" height="12" fill="#e15759" rx="2"></rect><text x="116" y="10" font-size="10" fill="#555">reviewer</text><rect x="200" y="0" width="12" height="12" fill="#b07aa1" rx="2"></rect><text x="216" y="10" font-size="10" fill="#555">qa</text><rect x="300" y="0" width="12" height="12" fill="#ff9da7" rx="2"></rect><text x="316" y="10" font-size="10" fill="#555">synthesizer</text></g><g transform="translate(0,650)" fill="none" font-size="10" font-family="sans-serif" text-anchor="middle"><path class="domain" stroke="#888" d="M100.5,6V0.5H1150.5V6"></path><g class="tick" opacity="1" transform="translate(100.5,0)"><line stroke="#888" y2="6"></line><text fill="#888" y="9" dy="0.71em" font-size="11">0</text></g><g class="tick" opacity="1" transform="translate(209.69176921615752,0)"><line stroke="#888" y2="6"></line><text fill="#888" y="9" dy="0.71em" font-size="11">1</text></g><g class="tick" opacity="1" transform="translate(318.88353843231505,0)"><line stroke="#888" y2="6"></line><text fill="#888" y="9" dy="0.71em" font-size="11">2</text></g><g class="tick" opacity="1" transform="translate(428.0753076484725,0)"><line stroke="#888" y2="6"></line><text fill="#888" y="9" dy="0.71em" font-size="11">3</text></g><g class="tick" opacity="1" transform="translate(537.2670768646301,0)"><line stroke="#888" y2="6"></line><text fill="#888" y="9" dy="0.71em" font-size="11">4</text></g><g class="tick" opacity="1" transform="translate(646.4588460807877,0)"><line stroke="#888" y2="6"></line><text fill="#888" y="9" dy="0.71em" font-size="11">5</text></g><g class="tick" opacity="1" transform="translate(755.650615296945,0)"><line stroke="#888" y2="6"></line><text fill="#888" y="9" dy="0.71em" font-size="11">6</text></g><g class="tick" opacity="1" transform="translate(864.8423845131026,0)"><line stroke="#888" y2="6"></line><text fill="#888" y="9" dy="0.71em" font-size="11">7</text></g><g class="tick" opacity="1" transform="translate(974.0341537292602,0)"><line stroke="#888" y2="6"></line><text fill="#888" y="9" dy="0.71em" font-size="11">8</text></g><g class="tick" opacity="1" transform="translate(1083.2259229454178,0)"><line stroke="#888" y2="6"></line><text fill="#888" y="9" dy="0.71em" font-size="11">9</text></g></g><text x="625" y="695" text-anchor="middle" font-size="12" fill="#555">Cost (USD)</text></svg>