<svg xmlns="http://www.w3.org/2000/svg" viewBox="0 0 1200 700" width="1200" height="700" style="font-family: &quot;Inter&quot;, -apple-system, BlinkMacSystemFont, &quot;Segoe UI&quot;, sans-serif;"><rect width="1200" height="700" fill="#fff"></rect><text x="600" y="35" text-anchor="middle" font-size="18" font-weight="700" fill="#222">What's the cost of QA failure?</text><text x="600" y="55" text-anchor="middle" font-size="13" fill="#666">red = review / QA rework</text><line x1="100" x2="1150" y1="630" y2="630" stroke="#f0f0f0" stroke-width="1"></line><line x1="100" x2="1150" y1="543.9048320078988" y2="543.9048320078988" stroke="#f0f0f0" stroke-width="1"></line><line x1="100" x2="1150" y1="457.80966401579775" y2="457.80966401579775" stroke="#f0f0f0" stroke-width="1"></line><line x1="100" x2="1150" y1="371.7144960236967" y2="371.7144960236967" stroke="#f0f0f0" stroke-width="1"></line><line x1="100" x2="1150" y1="285.61932803159556" y2="285.61932803159556" stroke="#f0f0f0" stroke-width="1"></line><line x1="100" x2="1150" y1="199.52416003949446" y2="199.52416003949446" stroke="#f0f0f0" stroke-width="1"></line><line x1="100" x2="1150" y1="113.42899204739332" y2="113.42899204739332" stroke="#f0f0f0" stroke-width="1"></line><rect x="119.81132075471697" y="623.6836624383267" width="59.43396226415094" height="6.316337561673322" fill="#4e79a7" opacity="0.85" rx="3"></rect><rect x="199.0566037735849" y="615.6331701744061" width="59.43396226415094" height="14.366829825593868" fill="#59a14f" opacity="0.85" rx="3"></rect><rect x="278.3018867924528" y="619.5100700271577" width="59.43396226415094" height="10.489929972842333" fill="#9c755f" opacity="0.85" rx="3"></rect><rect x="357.5471698113207" y="621.3692478276047" width="59.43396226415094" height="8.630752172395319" fill="#76b7b2" opacity="0.85" rx="3"></rect><rect x="436.79245283018867" y="535.0718508954069" width="59.43396226415094" height="94.9281491045931" fill="#edc948" opacity="0.85" rx="3"></rect><rect x="516.0377358490566" y="614.7757914439567" width="59.43396226415094" height="15.224208556043322" fill="#a0cbe8" opacity="0.85" rx="3"></rect><rect x="595.2830188679245" y="120.90909090909099" width="59.43396226415094" height="509.090909090909" fill="#f28e2b" opacity="0.85" rx="3"></rect><rect x="674.5283018867924" y="447.80850922592174" width="59.43396226415094" height="182.19149077407826" fill="#e15759" opacity="0.85" rx="3"></rect><rect x="753.7735849056603" y="330.6601486141737" width="59.43396226415094" height="299.3398513858263" fill="#e15759" opacity="0.85" rx="3"></rect><rect x="833.0188679245282" y="624.6592033430385" width="59.43396226415094" height="5.3407966569615155" fill="#ff9da7" opacity="0.85" rx="3"></rect><rect x="912.2641509433961" y="592.4129417672308" width="59.43396226415094" height="37.58705823276921" fill="#bab0ac" opacity="0.85" rx="3"></rect><rect x="991.5094339622642" y="529.9694508976638" width="59.43396226415094" height="100.03054910233618" fill="#86bcb6" opacity="0.85" rx="3"></rect><rect x="1070.754716981132" y="615.7700184439295" width="59.43396226415094" height="14.22998155607047" fill="#d4a6c8" opacity="0.85" rx="3"></rect><text x="149.52830188679243" y="648" text-anchor="end" font-size="10" fill="#555" transform="rotate(-35, 149.52830188679243, 648)">product_manager</text><text x="228.77358490566036" y="648" text-anchor="end" font-size="10" fill="#555" transform="rotate(-35, 228.77358490566036, 648)">architect</text><text x="308.0188679245283" y="648" text-anchor="end" font-size="10" fill="#555" transform="rotate(-35, 308.0188679245283, 648)">sprint_planner</text><text x="387.2641509433962" y="648" text-anchor="end" font-size="10" fill="#555" transform="rotate(-35, 387.2641509433962, 648)">tech_lead</text><text x="466.50943396226415" y="648" text-anchor="end" font-size="10" fill="#555" transform="rotate(-35, 466.50943396226415, 648)">issue_writer</text><text x="545.7547169811321" y="648" text-anchor="end" font-size="10" fill="#555" transform="rotate(-35, 545.7547169811321, 648)">workspace_setup</text><text x="625" y="648" text-anchor="end" font-size="10" fill="#555" transform="rotate(-35, 625, 648)">coder</text><text x="704.2452830188679" y="648" text-anchor="end" font-size="10" fill="#555" transform="rotate(-35, 704.2452830188679, 648)">reviewer</text><text x="783.4905660377358" y="648" text-anchor="end" font-size="10" fill="#555" transform="rotate(-35, 783.4905660377358, 648)">qa</text><text x="862.7358490566037" y="648" text-anchor="end" font-size="10" fill="#555" transform="rotate(-35, 862.7358490566037, 648)">synthesizer</text><text x="941.9811320754716" y="648" text-anchor="end" font-size="10" fill="#555" transform="rotate(-35, 941.9811320754716, 648)">merger</text><text x="1021.2264150943397" y="648" text-anchor="end" font-size="10" fill="#555" transform="rotate(-35, 1021.2264150943397, 648)">integration_tester</text><text x="1100.4716981132076" y="648" text-anchor="end" font-size="10" fill="#555" transform="rotate(-35, 1100.4716981132076, 648)">workspace_cleanup</text><g transform="translate(100,0)" fill="none" font-size="10" font-family="sans-serif" text-anchor="end"><path class="domain" stroke="#888" d="M-6,630.5H0.5V70.5H-6"></path><g class="tick" opacity="1" transform="translate(0,630.5)"><line stroke="#888" x2="-6"></line><text fill="#888" x="-9" dy="0.32em" font-size="11">0</text></g><g class="tick" opacity="1" transform="translate(0,544.4048320078988)"><line stroke="#888" x2="-6"></line><text fill="#888" x="-9" dy="0.32em" font-size="11">5</text></g><g class="tick" opacity="1" transform="translate(0,458.30966401579775)"><line stroke="#888" x2="-6"></line><text fill="#888" x="-9" dy="0.32em" font-size="11">10</text></g><g class="tick" opacity="1" transform="translate(0,372.2144960236967)"><line stroke="#888" x2="-6"></line><text fill="#888" x="-9" dy="0.32em" font-size="11">15</text></g><g class="tick" opacity="1" transform="translate(0,286.11932803159556)"><line stroke="#888" x2="-6"></line><text fill="#888" x="-9" dy="0.32em" font-size="11">20</text></g><g class="tick" opacity="1" transform="translate(0,200.02416003949446)"><line stroke="#888" x2="-6"></line><text fill="#888" x="-9" dy="0.32em" font-size="11">25</text></g><g class="tick" opacity="1" transform="translate(0,113.92899204739332)"><line stroke="#888" x2="-6"></line><text fill="#888" x="-9" dy="0.32em" font-size="11">30</text></g></g><text transform="rotate(-90)" x="-350" y="55" text-anchor="middle" font-size="12" fill="#555">Cost (USD)</text><g transform="translate(980, 75)"><rect x="0" y="0" width="14" height="14" fill="#4e79a7" rx="2"></rect><text x="20" y="11" font-size="11" fill="#555">Build</text><rect x="0" y="20" width="14" height="14" fill="#e15759" rx="2"></rect><text x="20" y="31" font-size="11" fill="#555">Review / QA</text></g></svg>