<svg xmlns="http://www.w3.org/2000/svg" viewBox="0 0 1130 590" width="1130" height="590" style="font-family: &quot;Inter&quot;, -apple-system, BlinkMacSystemFont, &quot;Segoe UI&quot;, sans-serif;"><rect width="1130" height="590" fill="#fff"></rect><text x="565" y="35" text-anchor="middle" font-size="18" font-weight="700" fill="#222">Key Metrics at a Glance</text><rect x="30" y="80" width="340" height="140" fill="#fafafa" rx="10" stroke="#eee" stroke-width="1"></rect><rect x="30" y="80" width="5" height="140" fill="#e15759" rx="3"></rect><text x="200" y="145" text-anchor="middle" font-size="36" font-weight="700" fill="#e15759">$77.65</text><text x="200" y="180" text-anchor="middle" font-size="14" fill="#666">Total Cost</text><rect x="395" y="80" width="340" height="140" fill="#fafafa" rx="10" stroke="#eee" stroke-width="1"></rect><rect x="395" y="80" width="5" height="140" fill="#4e79a7" rx="3"></rect><text x="565" y="145" text-anchor="middle" font-size="36" font-weight="700" fill="#4e79a7">305.1 min</text><text x="565" y="180" text-anchor="middle" font-size="14" fill="#666">Wall-Clock Time</text><rect x="760" y="80" width="340" height="140" fill="#fafafa" rx="10" stroke="#eee" stroke-width="1"></rect><rect x="760" y="80" width="5" height="140" fill="#59a14f" rx="3"></rect><text x="930" y="145" text-anchor="middle" font-size="36" font-weight="700" fill="#59a14f">548.8 min</text><text x="930" y="180" text-anchor="middle" font-size="14" fill="#666">Agent-Time</text><rect x="30" y="245" width="340" height="140" fill="#fafafa" rx="10" stroke="#eee" stroke-width="1"></rect><rect x="30" y="245" width="5" height="140" fill="#f28e2b" rx="3"></rect><text x="200" y="310" text-anchor="middle" font-size="36" font-weight="700" fill="#f28e2b">1.8×</text><text x="200" y="345" text-anchor="middle" font-size="14" fill="#666">Parallelism Factor</text><rect x="395" y="245" width="340" height="140" fill="#fafafa" rx="10" stroke="#eee" stroke-width="1"></rect><rect x="395" y="245" width="5" height="140" fill="#76b7b2" rx="3"></rect><text x="565" y="310" text-anchor="middle" font-size="36" font-weight="700" fill="#76b7b2">123</text><text x="565" y="345" text-anchor="middle" font-size="14" fill="#666">Agent Runs</text><rect x="760" y="245" width="340" height="140" fill="#fafafa" rx="10" stroke="#eee" stroke-width="1"></rect><rect x="760" y="245" width="5" height="140" fill="#b07aa1" rx="3"></rect><text x="930" y="310" text-anchor="middle" font-size="36" font-weight="700" fill="#b07aa1">15</text><text x="930" y="345" text-anchor="middle" font-size="14" fill="#666">Peak Concurrency</text><rect x="30" y="410" width="340" height="140" fill="#fafafa" rx="10" stroke="#eee" stroke-width="1"></rect><rect x="30" y="410" width="5" height="140" fill="#edc948" rx="3"></rect><text x="200" y="475" text-anchor="middle" font-size="36" font-weight="700" fill="#edc948">2,336</text><text x="200" y="510" text-anchor="middle" font-size="14" fill="#666">Total Turns</text><rect x="395" y="410" width="340" height="140" fill="#fafafa" rx="10" stroke="#eee" stroke-width="1"></rect><rect x="395" y="410" width="5" height="140" fill="#9c755f" rx="3"></rect><text x="565" y="475" text-anchor="middle" font-size="36" font-weight="700" fill="#9c755f">2,302</text><text x="565" y="510" text-anchor="middle" font-size="14" fill="#666">Total Tool Calls</text><rect x="760" y="410" width="340" height="140" fill="#fafafa" rx="10" stroke="#eee" stroke-width="1"></rect><rect x="760" y="410" width="5" height="140" fill="#ff9da7" rx="3"></rect><text x="930" y="475" text-anchor="middle" font-size="36" font-weight="700" fill="#ff9da7">$0.63</text><text x="930" y="510" text-anchor="middle" font-size="14" fill="#666">Avg Cost / Agent</text></svg>